<svg xmlns="http://www.w3.org/2000/svg" xmlns:xlink="http://www.w3.org/1999/xlink" width="512" zoomAndPan="magnify" viewBox="0 0 384 383.999986" height="512" preserveAspectRatio="xMidYMid meet" version="1.0"><defs><clipPath id="65c2d25943"><path d="M 302 38.398438 L 345.898438 38.398438 L 345.898438 345.898438 L 302 345.898438 Z M 302 38.398438 " clip-rule="nonzero"/></clipPath><clipPath id="f2db7b3996"><path d="M 38.398438 38.398438 L 106 38.398438 L 106 345.898438 L 38.398438 345.898438 Z M 38.398438 38.398438 " clip-rule="nonzero"/></clipPath></defs><path fill="#105a4c" d="M 292.542969 118.050781 C 291.433594 116.542969 290.289062 115.0625 289.113281 113.605469 C 287.9375 112.152344 286.730469 110.722656 285.492188 109.320312 C 284.253906 107.921875 282.980469 106.546875 281.679688 105.203125 C 280.378906 103.859375 279.046875 102.546875 277.6875 101.261719 C 276.328125 99.976562 274.9375 98.726562 273.519531 97.503906 C 272.105469 96.28125 270.660156 95.09375 269.191406 93.9375 C 267.71875 92.777344 266.226562 91.65625 264.703125 90.566406 C 263.183594 89.476562 261.640625 88.421875 260.070312 87.402344 C 258.503906 86.382812 256.914062 85.398438 255.300781 84.449219 C 253.6875 83.5 252.054688 82.585938 250.402344 81.710938 C 248.746094 80.835938 247.074219 80 245.382812 79.199219 C 243.695312 78.398438 241.984375 77.636719 240.261719 76.914062 C 238.535156 76.1875 236.792969 75.503906 235.039062 74.859375 C 233.28125 74.214844 231.511719 73.609375 229.730469 73.042969 C 227.945312 72.476562 226.152344 71.953125 224.34375 71.46875 C 222.535156 70.984375 220.71875 70.539062 218.894531 70.136719 C 217.066406 69.730469 215.230469 69.371094 213.386719 69.050781 C 211.546875 68.726562 209.695312 68.449219 207.839844 68.210938 C 205.984375 67.972656 204.125 67.777344 202.261719 67.625 C 200.394531 67.46875 198.527344 67.355469 196.660156 67.285156 C 194.789062 67.214844 192.917969 67.1875 191.046875 67.203125 C 189.175781 67.214844 187.308594 67.273438 185.441406 67.371094 C 183.570312 67.46875 181.707031 67.609375 179.84375 67.789062 C 177.984375 67.972656 176.125 68.195312 174.273438 68.460938 C 172.421875 68.722656 170.578125 69.03125 168.738281 69.378906 C 166.898438 69.726562 165.070312 70.117188 163.25 70.546875 C 161.429688 70.976562 159.621094 71.449219 157.820312 71.960938 C 156.019531 72.472656 154.234375 73.023438 152.457031 73.617188 C 150.683594 74.207031 148.921875 74.839844 147.175781 75.511719 C 145.429688 76.179688 143.699219 76.890625 141.984375 77.640625 C 140.273438 78.390625 138.574219 79.175781 136.894531 80 C 135.21875 80.824219 133.558594 81.6875 131.917969 82.589844 L 127.289062 74.179688 C 129.054688 73.210938 130.84375 72.28125 132.652344 71.390625 C 134.460938 70.503906 136.285156 69.65625 138.132812 68.847656 C 139.980469 68.042969 141.84375 67.277344 143.722656 66.554688 C 145.605469 65.832031 147.5 65.152344 149.410156 64.511719 C 151.320312 63.875 153.246094 63.28125 155.183594 62.730469 C 157.121094 62.179688 159.070312 61.671875 161.03125 61.207031 C 162.992188 60.742188 164.960938 60.324219 166.941406 59.949219 C 168.921875 59.574219 170.910156 59.246094 172.902344 58.957031 C 174.898438 58.671875 176.898438 58.433594 178.902344 58.234375 C 180.90625 58.039062 182.917969 57.890625 184.929688 57.785156 C 186.941406 57.679688 188.953125 57.617188 190.96875 57.601562 C 192.984375 57.589844 194.996094 57.617188 197.011719 57.695312 C 199.023438 57.769531 201.035156 57.890625 203.042969 58.054688 C 205.050781 58.222656 207.054688 58.433594 209.050781 58.6875 C 211.050781 58.945312 213.042969 59.246094 215.027344 59.589844 C 217.011719 59.9375 218.988281 60.324219 220.953125 60.761719 C 222.921875 61.195312 224.878906 61.671875 226.824219 62.195312 C 228.769531 62.714844 230.703125 63.28125 232.625 63.890625 C 234.542969 64.5 236.449219 65.152344 238.339844 65.847656 C 240.234375 66.542969 242.105469 67.277344 243.964844 68.058594 C 245.824219 68.835938 247.664062 69.65625 249.484375 70.519531 C 251.304688 71.378906 253.105469 72.28125 254.886719 73.226562 C 256.667969 74.167969 258.425781 75.148438 260.164062 76.171875 C 261.898438 77.191406 263.613281 78.253906 265.300781 79.351562 C 266.988281 80.449219 268.652344 81.585938 270.289062 82.761719 C 271.929688 83.933594 273.539062 85.144531 275.121094 86.386719 C 276.707031 87.632812 278.261719 88.914062 279.785156 90.230469 C 281.3125 91.546875 282.808594 92.894531 284.273438 94.277344 C 285.738281 95.660156 287.171875 97.078125 288.574219 98.523438 C 289.972656 99.972656 291.34375 101.449219 292.675781 102.957031 C 294.011719 104.46875 295.3125 106.003906 296.578125 107.574219 C 297.84375 109.140625 299.074219 110.734375 300.269531 112.355469 Z M 292.542969 118.050781 " fill-opacity="1" fill-rule="nonzero"/><path fill="#105a4c" d="M 113.550781 94.929688 L 107.519531 87.46875 C 110.667969 84.921875 113.964844 82.488281 117.328125 80.230469 L 122.675781 88.207031 C 119.542969 90.300781 116.480469 92.5625 113.550781 94.929688 Z M 113.550781 94.929688 " fill-opacity="1" fill-rule="nonzero"/><path fill="#105a4c" d="M 191.996094 326.394531 C 187.285156 326.390625 182.585938 326.140625 177.898438 325.644531 C 173.210938 325.148438 168.5625 324.40625 163.953125 323.421875 C 159.34375 322.4375 154.800781 321.210938 150.320312 319.75 C 145.839844 318.289062 141.449219 316.59375 137.144531 314.671875 C 132.84375 312.746094 128.652344 310.601562 124.574219 308.238281 C 120.496094 305.875 116.554688 303.304688 112.746094 300.523438 C 108.941406 297.746094 105.289062 294.777344 101.792969 291.617188 C 98.296875 288.453125 94.976562 285.117188 91.832031 281.609375 L 98.984375 275.203125 C 100.710938 277.136719 102.5 279.011719 104.34375 280.828125 C 106.1875 282.648438 108.085938 284.410156 110.039062 286.113281 C 111.996094 287.8125 114 289.453125 116.054688 291.027344 C 118.113281 292.605469 120.214844 294.117188 122.363281 295.5625 C 124.515625 297.007812 126.707031 298.382812 128.945312 299.691406 C 131.179688 301.003906 133.453125 302.242188 135.769531 303.40625 C 138.082031 304.574219 140.429688 305.667969 142.808594 306.691406 C 145.191406 307.710938 147.601562 308.660156 150.042969 309.53125 C 152.480469 310.402344 154.945312 311.195312 157.433594 311.914062 C 159.925781 312.628906 162.433594 313.269531 164.964844 313.832031 C 167.492188 314.394531 170.039062 314.875 172.597656 315.277344 C 175.15625 315.679688 177.726562 316.003906 180.304688 316.246094 C 182.886719 316.488281 185.46875 316.652344 188.058594 316.734375 C 190.648438 316.816406 193.238281 316.816406 195.828125 316.738281 C 198.417969 316.660156 201.003906 316.5 203.582031 316.257812 C 206.164062 316.019531 208.730469 315.699219 211.292969 315.300781 C 213.851562 314.898438 216.398438 314.417969 218.925781 313.859375 C 221.457031 313.300781 223.96875 312.664062 226.457031 311.949219 C 228.949219 311.234375 231.414062 310.445312 233.855469 309.574219 C 236.296875 308.707031 238.707031 307.765625 241.089844 306.746094 C 243.472656 305.726562 245.820312 304.636719 248.132812 303.46875 C 250.449219 302.304688 252.722656 301.070312 254.960938 299.761719 C 257.199219 298.457031 259.394531 297.082031 261.546875 295.636719 C 263.699219 294.195312 265.800781 292.6875 267.859375 291.113281 C 269.917969 289.539062 271.925781 287.902344 273.878906 286.203125 C 275.835938 284.503906 277.738281 282.746094 279.585938 280.925781 C 281.429688 279.109375 283.21875 277.234375 284.949219 275.308594 C 286.679688 273.378906 288.347656 271.398438 289.953125 269.363281 C 291.558594 267.332031 293.101562 265.25 294.578125 263.121094 C 296.054688 260.992188 297.464844 258.820312 298.804688 256.605469 C 300.148438 254.386719 301.417969 252.132812 302.621094 249.835938 C 303.820312 247.539062 304.949219 245.210938 306.003906 242.84375 L 314.769531 246.753906 C 313.453125 249.699219 312.03125 252.589844 310.507812 255.433594 C 308.980469 258.273438 307.359375 261.054688 305.632812 263.78125 C 303.90625 266.503906 302.085938 269.164062 300.171875 271.757812 C 298.253906 274.351562 296.25 276.875 294.152344 279.324219 C 292.054688 281.773438 289.871094 284.144531 287.605469 286.4375 C 285.335938 288.730469 282.992188 290.9375 280.5625 293.0625 C 278.136719 295.1875 275.640625 297.21875 273.066406 299.164062 C 270.492188 301.109375 267.855469 302.957031 265.148438 304.714844 C 262.445312 306.46875 259.679688 308.125 256.855469 309.679688 C 254.03125 311.238281 251.15625 312.6875 248.226562 314.039062 C 245.296875 315.386719 242.324219 316.632812 239.304688 317.765625 C 236.289062 318.902344 233.234375 319.929688 230.140625 320.84375 C 227.050781 321.761719 223.929688 322.566406 220.78125 323.257812 C 217.628906 323.949219 214.460938 324.527344 211.269531 324.992188 C 208.078125 325.457031 204.875 325.804688 201.660156 326.039062 C 198.441406 326.273438 195.222656 326.394531 191.996094 326.394531 Z M 191.996094 326.394531 " fill-opacity="1" fill-rule="nonzero"/><path fill="#105a4c" d="M 287.433594 237.25 L 278.761719 233.144531 C 280.175781 230.167969 281.429688 227.128906 282.527344 224.023438 L 291.585938 227.214844 C 290.375 230.628906 288.988281 233.976562 287.433594 237.25 Z M 287.433594 237.25 " fill-opacity="1" fill-rule="nonzero"/><path fill="#105a4c" d="M 191.996094 297.597656 C 190.183594 297.59375 188.371094 297.546875 186.5625 297.449219 C 184.75 297.355469 182.941406 297.210938 181.136719 297.023438 C 179.335938 296.835938 177.539062 296.597656 175.746094 296.316406 C 173.953125 296.035156 172.171875 295.707031 170.394531 295.335938 C 168.621094 294.960938 166.859375 294.542969 165.105469 294.078125 C 163.351562 293.613281 161.613281 293.105469 159.882812 292.550781 C 158.15625 291.996094 156.445312 291.398438 154.75 290.753906 C 153.054688 290.113281 151.375 289.425781 149.714844 288.699219 C 148.054688 287.96875 146.414062 287.199219 144.792969 286.382812 C 143.171875 285.570312 141.574219 284.714844 139.996094 283.820312 C 138.421875 282.921875 136.867188 281.988281 135.339844 281.011719 C 133.8125 280.035156 132.308594 279.019531 130.832031 277.964844 C 129.355469 276.910156 127.910156 275.820312 126.488281 274.691406 C 125.070312 273.5625 123.679688 272.398438 122.320312 271.199219 C 120.960938 270 119.632812 268.765625 118.335938 267.496094 C 117.039062 266.226562 115.777344 264.925781 114.550781 263.59375 C 113.320312 262.257812 112.125 260.894531 110.96875 259.5 C 109.808594 258.105469 108.6875 256.679688 107.601562 255.226562 C 106.515625 253.773438 105.46875 252.292969 104.460938 250.785156 C 103.453125 249.28125 102.484375 247.746094 101.554688 246.191406 C 100.625 244.632812 99.734375 243.054688 98.886719 241.449219 C 98.039062 239.847656 97.230469 238.222656 96.46875 236.578125 C 95.703125 234.933594 94.980469 233.269531 94.304688 231.589844 C 93.625 229.90625 92.988281 228.210938 92.398438 226.496094 C 91.808594 224.78125 91.261719 223.050781 90.757812 221.308594 C 90.257812 219.566406 89.800781 217.8125 89.390625 216.046875 C 88.976562 214.277344 88.613281 212.503906 88.292969 210.71875 C 87.972656 208.933594 87.699219 207.140625 87.472656 205.339844 C 87.246094 203.542969 87.0625 201.738281 86.929688 199.929688 C 86.792969 198.121094 86.707031 196.308594 86.667969 194.496094 C 86.625 192.683594 86.632812 190.871094 86.683594 189.058594 C 86.738281 187.246094 86.835938 185.433594 86.980469 183.628906 C 87.128906 181.820312 87.320312 180.015625 87.558594 178.21875 C 87.796875 176.421875 88.082031 174.632812 88.414062 172.847656 C 88.746094 171.066406 89.121094 169.292969 89.546875 167.527344 C 89.96875 165.765625 90.4375 164.011719 90.949219 162.273438 C 91.460938 160.535156 92.019531 158.808594 92.621094 157.097656 C 93.222656 155.386719 93.871094 153.695312 94.558594 152.015625 C 95.25 150.339844 95.980469 148.679688 96.757812 147.039062 C 97.53125 145.402344 98.347656 143.78125 99.207031 142.183594 C 100.066406 140.585938 100.964844 139.011719 101.90625 137.460938 C 102.84375 135.910156 103.824219 134.386719 104.839844 132.882812 C 105.859375 131.382812 106.917969 129.910156 108.011719 128.464844 C 109.105469 127.019531 110.238281 125.601562 111.402344 124.214844 C 112.570312 122.824219 113.773438 121.46875 115.011719 120.144531 C 116.25 118.816406 117.519531 117.523438 118.824219 116.265625 C 120.128906 115.003906 121.464844 113.777344 122.832031 112.585938 C 124.199219 111.394531 125.597656 110.242188 127.023438 109.121094 C 128.449219 108.003906 129.90625 106.921875 131.386719 105.875 C 132.871094 104.832031 134.378906 103.828125 135.914062 102.859375 C 137.449219 101.894531 139.007812 100.96875 140.589844 100.082031 C 142.171875 99.195312 143.777344 98.351562 145.402344 97.546875 C 147.027344 96.746094 148.675781 95.984375 150.339844 95.265625 C 152.003906 94.546875 153.6875 93.871094 155.386719 93.242188 C 157.085938 92.609375 158.800781 92.023438 160.53125 91.480469 C 162.261719 90.9375 164.007812 90.4375 165.761719 89.984375 C 167.519531 89.53125 169.285156 89.125 171.0625 88.761719 C 172.839844 88.398438 174.625 88.085938 176.417969 87.8125 C 178.210938 87.542969 180.011719 87.320312 181.816406 87.144531 C 183.621094 86.964844 185.429688 86.835938 187.238281 86.753906 C 189.050781 86.667969 190.863281 86.632812 192.679688 86.640625 C 194.492188 86.652344 196.304688 86.707031 198.113281 86.808594 C 199.925781 86.914062 201.730469 87.0625 203.535156 87.257812 C 205.335938 87.457031 207.132812 87.699219 208.925781 87.988281 C 210.714844 88.277344 212.496094 88.609375 214.269531 88.992188 C 216.042969 89.371094 217.804688 89.800781 219.554688 90.269531 C 221.308594 90.742188 223.046875 91.257812 224.769531 91.820312 C 226.492188 92.382812 228.203125 92.988281 229.894531 93.636719 C 231.589844 94.285156 233.265625 94.980469 234.921875 95.714844 C 236.578125 96.449219 238.21875 97.230469 239.835938 98.050781 C 241.453125 98.871094 243.046875 99.730469 244.621094 100.632812 C 246.191406 101.539062 247.742188 102.480469 249.265625 103.460938 C 250.789062 104.445312 252.289062 105.464844 253.761719 106.527344 C 255.230469 107.585938 256.675781 108.683594 258.089844 109.816406 C 259.503906 110.953125 260.890625 112.121094 262.246094 113.328125 C 263.597656 114.535156 264.921875 115.773438 266.214844 117.046875 C 267.503906 118.320312 268.761719 119.628906 269.984375 120.964844 C 271.207031 122.304688 272.394531 123.675781 273.546875 125.074219 C 274.699219 126.476562 275.816406 127.902344 276.894531 129.359375 C 277.976562 130.820312 279.015625 132.304688 280.019531 133.816406 C 281.019531 135.324219 281.984375 136.863281 282.90625 138.421875 C 283.828125 139.984375 284.710938 141.566406 285.554688 143.175781 C 286.394531 144.78125 287.195312 146.40625 287.953125 148.054688 C 288.710938 149.703125 289.425781 151.371094 290.097656 153.054688 C 290.769531 154.738281 291.394531 156.441406 291.980469 158.15625 C 292.5625 159.875 293.101562 161.605469 293.597656 163.351562 C 294.09375 165.09375 294.542969 166.851562 294.945312 168.617188 C 295.347656 170.386719 295.707031 172.164062 296.019531 173.949219 C 296.332031 175.738281 296.597656 177.53125 296.816406 179.332031 C 297.039062 181.128906 297.210938 182.933594 297.339844 184.746094 C 297.464844 186.554688 297.546875 188.363281 297.578125 190.179688 C 297.613281 191.992188 297.597656 193.804688 297.539062 195.617188 C 297.476562 197.429688 297.371094 199.238281 297.21875 201.046875 C 297.0625 202.851562 296.863281 204.65625 296.617188 206.453125 C 296.371094 208.25 296.078125 210.039062 295.738281 211.820312 C 295.402344 213.601562 295.015625 215.371094 294.585938 217.136719 L 285.261719 214.855469 C 285.734375 212.917969 286.148438 210.96875 286.503906 209.003906 C 286.855469 207.042969 287.148438 205.070312 287.378906 203.085938 C 287.609375 201.105469 287.777344 199.121094 287.886719 197.128906 C 287.992188 195.136719 288.039062 193.144531 288.019531 191.148438 C 288.003906 189.152344 287.921875 187.160156 287.78125 185.171875 C 287.640625 183.183594 287.4375 181.199219 287.171875 179.222656 C 286.90625 177.246094 286.578125 175.277344 286.191406 173.320312 C 285.804688 171.367188 285.355469 169.421875 284.847656 167.492188 C 284.335938 165.566406 283.769531 163.65625 283.140625 161.761719 C 282.511719 159.867188 281.828125 157.996094 281.082031 156.144531 C 280.335938 154.296875 279.535156 152.46875 278.675781 150.667969 C 277.820312 148.867188 276.90625 147.097656 275.9375 145.355469 C 274.96875 143.609375 273.945312 141.898438 272.867188 140.21875 C 271.792969 138.539062 270.667969 136.894531 269.488281 135.285156 C 268.308594 133.675781 267.082031 132.105469 265.808594 130.570312 C 264.53125 129.039062 263.207031 127.546875 261.839844 126.09375 C 260.46875 124.644531 259.058594 123.238281 257.601562 121.875 C 256.144531 120.511719 254.644531 119.195312 253.105469 117.929688 C 251.566406 116.660156 249.992188 115.4375 248.375 114.269531 C 246.761719 113.097656 245.113281 111.976562 243.425781 110.910156 C 241.742188 109.839844 240.027344 108.828125 238.277344 107.867188 C 236.53125 106.90625 234.753906 106 232.949219 105.148438 C 231.144531 104.296875 229.316406 103.503906 227.460938 102.769531 C 225.609375 102.03125 223.734375 101.355469 221.839844 100.734375 C 219.941406 100.117188 218.027344 99.554688 216.097656 99.054688 C 214.167969 98.554688 212.222656 98.117188 210.261719 97.738281 C 208.304688 97.359375 206.335938 97.039062 204.359375 96.785156 C 202.378906 96.527344 200.398438 96.332031 198.40625 96.199219 C 196.417969 96.066406 194.421875 95.996094 192.429688 95.988281 C 190.433594 95.980469 188.441406 96.035156 186.449219 96.152344 C 184.457031 96.265625 182.472656 96.445312 180.492188 96.683594 C 178.511719 96.921875 176.542969 97.222656 174.582031 97.585938 C 172.617188 97.949219 170.671875 98.371094 168.734375 98.855469 C 166.800781 99.339844 164.882812 99.882812 162.980469 100.488281 C 161.078125 101.089844 159.199219 101.753906 157.339844 102.472656 C 155.480469 103.195312 153.644531 103.972656 151.832031 104.808594 C 150.019531 105.644531 148.238281 106.535156 146.480469 107.480469 C 144.726562 108.425781 143 109.425781 141.308594 110.480469 C 139.613281 111.535156 137.953125 112.640625 136.328125 113.796875 C 134.707031 114.953125 133.117188 116.160156 131.570312 117.417969 C 130.019531 118.671875 128.511719 119.976562 127.042969 121.328125 C 125.574219 122.675781 124.148438 124.070312 122.769531 125.511719 C 121.386719 126.949219 120.050781 128.429688 118.761719 129.953125 C 117.472656 131.472656 116.234375 133.035156 115.042969 134.636719 C 113.851562 136.234375 112.710938 137.871094 111.621094 139.539062 C 110.53125 141.210938 109.492188 142.914062 108.507812 144.648438 C 107.527344 146.382812 106.597656 148.148438 105.722656 149.941406 C 104.851562 151.734375 104.035156 153.554688 103.273438 155.398438 C 102.511719 157.242188 101.8125 159.109375 101.167969 160.996094 C 100.523438 162.882812 99.9375 164.789062 99.414062 166.714844 C 98.886719 168.636719 98.421875 170.578125 98.019531 172.53125 C 97.613281 174.484375 97.273438 176.449219 96.988281 178.421875 C 96.707031 180.398438 96.488281 182.378906 96.328125 184.367188 C 96.171875 186.355469 96.074219 188.347656 96.039062 190.339844 C 96.007812 192.335938 96.035156 194.328125 96.125 196.320312 C 96.214844 198.3125 96.367188 200.300781 96.582031 202.285156 C 96.792969 204.269531 97.070312 206.242188 97.40625 208.207031 C 97.746094 210.175781 98.140625 212.128906 98.601562 214.070312 C 99.058594 216.011719 99.578125 217.9375 100.15625 219.84375 C 100.734375 221.753906 101.375 223.640625 102.070312 225.511719 C 102.765625 227.378906 103.519531 229.226562 104.332031 231.046875 C 105.144531 232.871094 106.011719 234.664062 106.9375 236.433594 C 107.859375 238.203125 108.835938 239.9375 109.867188 241.644531 C 110.898438 243.351562 111.984375 245.027344 113.121094 246.664062 C 114.257812 248.304688 115.441406 249.90625 116.679688 251.472656 C 117.914062 253.039062 119.199219 254.566406 120.53125 256.050781 C 121.859375 257.535156 123.238281 258.976562 124.65625 260.378906 C 126.078125 261.777344 127.542969 263.132812 129.046875 264.441406 C 130.554688 265.75 132.097656 267.007812 133.679688 268.222656 C 135.265625 269.433594 136.886719 270.597656 138.542969 271.707031 C 140.199219 272.820312 141.886719 273.878906 143.609375 274.882812 C 145.332031 275.890625 147.085938 276.839844 148.867188 277.738281 C 150.648438 278.632812 152.457031 279.472656 154.289062 280.257812 C 156.125 281.042969 157.980469 281.769531 159.859375 282.4375 C 161.738281 283.105469 163.636719 283.714844 165.554688 284.265625 C 167.472656 284.8125 169.40625 285.304688 171.355469 285.734375 C 173.300781 286.164062 175.261719 286.53125 177.230469 286.839844 C 179.203125 287.144531 181.179688 287.390625 183.167969 287.574219 C 185.152344 287.761719 187.144531 287.882812 189.136719 287.941406 C 191.128906 288.003906 193.125 288 195.117188 287.9375 C 197.113281 287.871094 199.101562 287.746094 201.085938 287.558594 C 203.074219 287.367188 205.050781 287.117188 207.019531 286.808594 C 208.992188 286.496094 210.949219 286.121094 212.898438 285.6875 C 214.84375 285.253906 216.777344 284.761719 218.691406 284.207031 C 220.609375 283.652344 222.503906 283.039062 224.382812 282.367188 C 226.261719 281.695312 228.117188 280.964844 229.949219 280.175781 C 231.78125 279.390625 233.585938 278.546875 235.367188 277.644531 C 237.144531 276.746094 238.898438 275.789062 240.617188 274.78125 C 242.335938 273.769531 244.023438 272.707031 245.679688 271.59375 C 247.332031 270.476562 248.949219 269.3125 250.53125 268.097656 C 252.113281 266.882812 253.65625 265.617188 255.15625 264.304688 C 256.660156 262.996094 258.121094 261.636719 259.539062 260.234375 C 260.957031 258.832031 262.328125 257.386719 263.65625 255.898438 C 264.984375 254.410156 266.265625 252.878906 267.5 251.3125 C 268.730469 249.746094 269.914062 248.140625 271.046875 246.496094 C 272.179688 244.855469 273.257812 243.179688 274.289062 241.46875 L 282.503906 246.425781 C 281.34375 248.371094 280.121094 250.277344 278.835938 252.148438 C 277.550781 254.015625 276.210938 255.839844 274.804688 257.621094 C 273.402344 259.402344 271.945312 261.136719 270.429688 262.824219 C 268.914062 264.507812 267.34375 266.144531 265.722656 267.730469 C 264.101562 269.3125 262.429688 270.84375 260.710938 272.320312 C 258.992188 273.796875 257.222656 275.214844 255.410156 276.578125 C 253.597656 277.9375 251.742188 279.242188 249.847656 280.480469 C 247.949219 281.722656 246.015625 282.902344 244.039062 284.015625 C 242.066406 285.132812 240.058594 286.183594 238.015625 287.167969 C 235.976562 288.15625 233.902344 289.074219 231.804688 289.925781 C 229.703125 290.777344 227.574219 291.558594 225.421875 292.273438 C 223.269531 292.984375 221.097656 293.628906 218.90625 294.199219 C 216.710938 294.773438 214.5 295.273438 212.273438 295.703125 C 210.046875 296.132812 207.8125 296.488281 205.5625 296.773438 C 203.3125 297.054688 201.054688 297.265625 198.792969 297.402344 C 196.53125 297.542969 194.265625 297.605469 191.996094 297.597656 Z M 191.996094 297.597656 " fill-opacity="1" fill-rule="nonzero"/><g clip-path="url(#65c2d25943)"><path fill="#105a4c" d="M 331.195312 345.59375 C 330.25 345.59375 329.3125 345.503906 328.386719 345.320312 C 327.457031 345.132812 326.558594 344.859375 325.683594 344.5 C 324.8125 344.136719 323.980469 343.695312 323.195312 343.167969 C 322.410156 342.644531 321.683594 342.046875 321.011719 341.378906 C 320.34375 340.710938 319.746094 339.980469 319.222656 339.195312 C 318.695312 338.410156 318.253906 337.578125 317.890625 336.707031 C 317.53125 335.832031 317.257812 334.933594 317.074219 334.003906 C 316.886719 333.078125 316.796875 332.140625 316.796875 331.195312 L 316.796875 212.453125 C 311.878906 202.578125 308.199219 192.257812 305.765625 181.492188 C 303.332031 170.730469 302.207031 159.832031 302.394531 148.796875 C 302.394531 138.054688 303.457031 43.679688 340.113281 38.449219 C 340.453125 38.398438 340.796875 38.386719 341.140625 38.410156 C 341.480469 38.4375 341.820312 38.496094 342.148438 38.59375 C 342.480469 38.691406 342.792969 38.820312 343.097656 38.988281 C 343.398438 39.152344 343.679688 39.347656 343.941406 39.574219 C 344.199219 39.796875 344.433594 40.046875 344.636719 40.324219 C 344.84375 40.597656 345.019531 40.894531 345.160156 41.207031 C 345.304688 41.519531 345.414062 41.84375 345.484375 42.179688 C 345.558594 42.515625 345.59375 42.855469 345.59375 43.199219 L 345.59375 331.195312 C 345.59375 332.140625 345.503906 333.078125 345.320312 334.003906 C 345.132812 334.933594 344.859375 335.832031 344.5 336.707031 C 344.136719 337.578125 343.695312 338.410156 343.167969 339.195312 C 342.644531 339.980469 342.046875 340.710938 341.378906 341.378906 C 340.710938 342.046875 339.980469 342.644531 339.195312 343.167969 C 338.410156 343.695312 337.578125 344.136719 336.707031 344.5 C 335.832031 344.859375 334.933594 345.132812 334.003906 345.320312 C 333.078125 345.503906 332.140625 345.59375 331.195312 345.59375 Z M 335.996094 50.117188 C 318.625 61.71875 311.996094 114.800781 311.996094 148.796875 C 311.796875 159.199219 312.859375 169.46875 315.179688 179.609375 C 317.5 189.746094 321.011719 199.457031 325.714844 208.734375 C 326.164062 209.492188 326.394531 210.3125 326.394531 211.199219 L 326.394531 331.195312 C 326.394531 331.511719 326.425781 331.824219 326.488281 332.132812 C 326.550781 332.441406 326.640625 332.742188 326.761719 333.03125 C 326.882812 333.324219 327.03125 333.601562 327.203125 333.863281 C 327.378906 334.125 327.578125 334.367188 327.800781 334.589844 C 328.023438 334.8125 328.265625 335.011719 328.527344 335.1875 C 328.789062 335.363281 329.066406 335.507812 329.359375 335.628906 C 329.648438 335.75 329.949219 335.839844 330.257812 335.902344 C 330.566406 335.964844 330.878906 335.996094 331.195312 335.996094 C 331.511719 335.996094 331.824219 335.964844 332.132812 335.902344 C 332.441406 335.839844 332.742188 335.75 333.03125 335.628906 C 333.324219 335.507812 333.601562 335.363281 333.863281 335.1875 C 334.125 335.011719 334.367188 334.8125 334.589844 334.589844 C 334.8125 334.367188 335.011719 334.125 335.1875 333.863281 C 335.363281 333.601562 335.507812 333.324219 335.628906 333.03125 C 335.75 332.742188 335.839844 332.441406 335.902344 332.132812 C 335.964844 331.824219 335.996094 331.511719 335.996094 331.195312 Z M 335.996094 50.117188 " fill-opacity="1" fill-rule="nonzero"/></g><g clip-path="url(#f2db7b3996)"><path fill="#105a4c" d="M 72 345.59375 C 71.207031 345.59375 70.421875 345.527344 69.644531 345.398438 C 68.796875 345.238281 67.96875 345.007812 67.164062 344.703125 C 66.355469 344.398438 65.582031 344.027344 64.84375 343.589844 C 64.101562 343.152344 63.402344 342.648438 62.75 342.089844 C 62.097656 341.527344 61.496094 340.914062 60.949219 340.25 C 60.402344 339.582031 59.917969 338.875 59.496094 338.121094 C 59.074219 337.371094 58.71875 336.589844 58.433594 335.777344 C 58.148438 334.964844 57.9375 334.132812 57.796875 333.28125 C 57.65625 332.433594 57.589844 331.578125 57.601562 330.714844 L 57.601562 165.746094 C 57.566406 164.125 57.339844 162.527344 56.914062 160.960938 C 56.492188 159.394531 55.882812 157.902344 55.09375 156.484375 C 54.304688 155.066406 53.351562 153.765625 52.242188 152.582031 C 51.132812 151.398438 49.894531 150.367188 48.53125 149.484375 C 46.929688 148.378906 45.484375 147.089844 44.203125 145.625 C 42.917969 144.160156 41.835938 142.558594 40.953125 140.824219 C 40.066406 139.085938 39.410156 137.269531 38.976562 135.371094 C 38.546875 133.46875 38.351562 131.546875 38.398438 129.597656 L 38.398438 125.203125 C 38.40625 116.070312 39.046875 106.984375 40.320312 97.941406 L 48.046875 42.53125 C 48.078125 42.238281 48.140625 41.953125 48.226562 41.667969 C 48.3125 41.386719 48.425781 41.117188 48.5625 40.855469 C 48.703125 40.59375 48.863281 40.351562 49.050781 40.121094 C 49.234375 39.890625 49.441406 39.679688 49.664062 39.488281 C 49.890625 39.300781 50.132812 39.132812 50.390625 38.988281 C 50.644531 38.84375 50.914062 38.722656 51.195312 38.628906 C 51.476562 38.535156 51.761719 38.472656 52.054688 38.433594 C 52.347656 38.394531 52.640625 38.382812 52.933594 38.398438 C 53.527344 38.414062 54.09375 38.535156 54.644531 38.761719 C 55.191406 38.984375 55.679688 39.300781 56.109375 39.707031 C 56.539062 40.113281 56.882812 40.582031 57.140625 41.117188 C 57.398438 41.648438 57.550781 42.210938 57.601562 42.800781 L 60.804688 81.269531 L 67.285156 42.390625 C 67.378906 41.828125 67.566406 41.304688 67.847656 40.8125 C 68.128906 40.320312 68.488281 39.890625 68.921875 39.523438 C 69.355469 39.15625 69.835938 38.875 70.367188 38.679688 C 70.902344 38.488281 71.453125 38.390625 72.019531 38.390625 C 72.585938 38.390625 73.136719 38.488281 73.667969 38.679688 C 74.199219 38.875 74.683594 39.15625 75.117188 39.523438 C 75.550781 39.890625 75.90625 40.320312 76.1875 40.8125 C 76.46875 41.304688 76.65625 41.828125 76.75 42.390625 L 83.230469 81.269531 L 86.398438 42.800781 C 86.449219 42.210938 86.601562 41.652344 86.855469 41.117188 C 87.113281 40.585938 87.457031 40.113281 87.886719 39.707031 C 88.316406 39.300781 88.804688 38.988281 89.351562 38.761719 C 89.898438 38.535156 90.46875 38.414062 91.058594 38.398438 C 91.652344 38.371094 92.230469 38.453125 92.789062 38.644531 C 93.351562 38.832031 93.859375 39.117188 94.3125 39.5 C 94.765625 39.882812 95.132812 40.332031 95.417969 40.855469 C 95.699219 41.375 95.878906 41.929688 95.949219 42.519531 L 103.632812 96.210938 C 104.945312 105.445312 105.605469 114.722656 105.609375 124.050781 L 105.609375 129.597656 C 105.65625 131.546875 105.464844 133.472656 105.03125 135.371094 C 104.601562 137.269531 103.941406 139.089844 103.058594 140.824219 C 102.171875 142.5625 101.089844 144.164062 99.804688 145.628906 C 98.523438 147.097656 97.078125 148.382812 95.476562 149.488281 C 94.109375 150.371094 92.871094 151.402344 91.761719 152.585938 C 90.648438 153.773438 89.699219 155.074219 88.90625 156.492188 C 88.117188 157.910156 87.507812 159.40625 87.082031 160.972656 C 86.660156 162.539062 86.429688 164.136719 86.398438 165.761719 L 86.398438 331.195312 C 86.398438 332.140625 86.308594 333.078125 86.121094 334.003906 C 85.9375 334.933594 85.664062 335.832031 85.304688 336.707031 C 84.941406 337.578125 84.496094 338.410156 83.972656 339.195312 C 83.445312 339.980469 82.851562 340.710938 82.183594 341.378906 C 81.511719 342.046875 80.785156 342.644531 80 343.167969 C 79.214844 343.695312 78.382812 344.136719 77.511719 344.5 C 76.636719 344.859375 75.734375 345.132812 74.808594 345.320312 C 73.882812 345.503906 72.945312 345.59375 72 345.59375 Z M 51.589844 86.5 L 49.804688 99.273438 C 48.605469 107.875 48.003906 116.515625 48 125.203125 L 48 129.597656 C 47.949219 130.761719 48.046875 131.910156 48.289062 133.050781 C 48.527344 134.1875 48.90625 135.277344 49.421875 136.320312 C 49.941406 137.363281 50.578125 138.328125 51.335938 139.207031 C 52.09375 140.089844 52.949219 140.863281 53.902344 141.53125 C 55.917969 142.851562 57.746094 144.394531 59.378906 146.160156 C 61.015625 147.929688 62.414062 149.867188 63.574219 151.980469 C 64.734375 154.089844 65.621094 156.3125 66.234375 158.640625 C 66.847656 160.96875 67.167969 163.339844 67.199219 165.746094 L 67.199219 330.714844 C 67.171875 331.3125 67.25 331.898438 67.425781 332.46875 C 67.605469 333.039062 67.875 333.5625 68.238281 334.039062 C 68.597656 334.515625 69.03125 334.914062 69.53125 335.238281 C 70.035156 335.5625 70.578125 335.792969 71.160156 335.929688 C 71.863281 336.046875 72.5625 336.011719 73.25 335.824219 C 73.941406 335.636719 74.558594 335.3125 75.105469 334.851562 C 75.640625 334.398438 76.058594 333.851562 76.355469 333.210938 C 76.652344 332.570312 76.800781 331.898438 76.800781 331.195312 L 76.800781 165.761719 C 76.828125 163.351562 77.152344 160.980469 77.765625 158.652344 C 78.378906 156.320312 79.265625 154.097656 80.421875 151.988281 C 81.582031 149.875 82.980469 147.933594 84.617188 146.164062 C 86.253906 144.394531 88.078125 142.851562 90.09375 141.53125 C 91.050781 140.863281 91.90625 140.089844 92.664062 139.207031 C 93.421875 138.328125 94.058594 137.363281 94.574219 136.320312 C 95.089844 135.277344 95.46875 134.1875 95.710938 133.050781 C 95.953125 131.910156 96.046875 130.761719 96 129.597656 L 96 124.046875 C 95.996094 115.175781 95.367188 106.351562 94.113281 97.574219 L 92.457031 85.917969 L 91.199219 101.199219 C 91.148438 101.796875 90.992188 102.371094 90.726562 102.914062 C 90.460938 103.453125 90.105469 103.929688 89.660156 104.335938 C 89.214844 104.746094 88.710938 105.058594 88.148438 105.273438 C 87.585938 105.492188 87.003906 105.601562 86.398438 105.597656 L 81.597656 105.597656 C 81.03125 105.597656 80.480469 105.5 79.949219 105.304688 C 79.414062 105.109375 78.933594 104.828125 78.5 104.460938 C 78.066406 104.09375 77.707031 103.664062 77.429688 103.171875 C 77.148438 102.679688 76.960938 102.152344 76.867188 101.589844 L 72 72.398438 L 67.132812 101.589844 C 67.039062 102.152344 66.851562 102.679688 66.570312 103.171875 C 66.289062 103.664062 65.933594 104.09375 65.5 104.460938 C 65.066406 104.828125 64.582031 105.109375 64.050781 105.304688 C 63.519531 105.5 62.96875 105.597656 62.398438 105.597656 L 57.601562 105.597656 C 56.996094 105.601562 56.414062 105.492188 55.851562 105.273438 C 55.289062 105.058594 54.785156 104.746094 54.339844 104.335938 C 53.894531 103.929688 53.539062 103.453125 53.273438 102.914062 C 53.007812 102.371094 52.851562 101.796875 52.800781 101.199219 Z M 51.589844 86.5 " fill-opacity="1" fill-rule="nonzero"/></g><path fill="#105a4c" d="M 191.996094 239.996094 C 180.597656 239.996094 134.398438 219.929688 134.398438 177.597656 C 134.363281 176.488281 134.382812 175.378906 134.457031 174.269531 C 134.535156 173.164062 134.667969 172.0625 134.855469 170.964844 C 135.046875 169.871094 135.292969 168.789062 135.589844 167.71875 C 135.890625 166.652344 136.246094 165.597656 136.652344 164.566406 C 137.0625 163.535156 137.519531 162.523438 138.03125 161.539062 C 138.542969 160.550781 139.105469 159.59375 139.714844 158.664062 C 140.324219 157.738281 140.976562 156.839844 141.679688 155.980469 C 142.378906 155.117188 143.125 154.292969 143.910156 153.507812 C 144.695312 152.722656 145.519531 151.980469 146.378906 151.28125 C 147.242188 150.578125 148.136719 149.921875 149.066406 149.3125 C 149.992188 148.703125 150.953125 148.144531 151.9375 147.632812 C 152.921875 147.121094 153.933594 146.660156 154.964844 146.253906 C 156 145.84375 157.050781 145.492188 158.121094 145.191406 C 159.191406 144.890625 160.273438 144.644531 161.367188 144.457031 C 162.460938 144.265625 163.5625 144.132812 164.671875 144.058594 C 165.777344 143.980469 166.886719 143.960938 167.996094 144 C 169.183594 143.976562 170.371094 144.03125 171.550781 144.160156 C 172.730469 144.289062 173.898438 144.492188 175.050781 144.773438 C 176.207031 145.050781 177.339844 145.402344 178.449219 145.824219 C 179.558594 146.25 180.632812 146.742188 181.679688 147.304688 C 182.726562 147.867188 183.734375 148.492188 184.699219 149.183594 C 185.667969 149.871094 186.585938 150.621094 187.453125 151.429688 C 188.324219 152.238281 189.140625 153.097656 189.902344 154.011719 C 190.660156 154.921875 191.359375 155.878906 191.996094 156.882812 C 192.636719 155.878906 193.335938 154.921875 194.09375 154.011719 C 194.855469 153.097656 195.671875 152.238281 196.539062 151.429688 C 197.410156 150.621094 198.328125 149.871094 199.296875 149.183594 C 200.261719 148.492188 201.269531 147.867188 202.3125 147.304688 C 203.359375 146.742188 204.4375 146.25 205.546875 145.824219 C 206.65625 145.402344 207.789062 145.050781 208.945312 144.773438 C 210.097656 144.492188 211.265625 144.289062 212.445312 144.160156 C 213.625 144.03125 214.808594 143.976562 215.996094 144 C 217.109375 143.960938 218.214844 143.980469 219.324219 144.058594 C 220.433594 144.132812 221.535156 144.265625 222.628906 144.457031 C 223.722656 144.644531 224.804688 144.890625 225.875 145.191406 C 226.945312 145.492188 227.996094 145.84375 229.027344 146.253906 C 230.0625 146.660156 231.070312 147.121094 232.058594 147.632812 C 233.042969 148.144531 234 148.703125 234.929688 149.3125 C 235.859375 149.921875 236.753906 150.578125 237.617188 151.28125 C 238.476562 151.980469 239.300781 152.722656 240.085938 153.507812 C 240.871094 154.292969 241.613281 155.117188 242.316406 155.980469 C 243.015625 156.839844 243.671875 157.738281 244.28125 158.664062 C 244.890625 159.59375 245.453125 160.550781 245.960938 161.539062 C 246.472656 162.523438 246.933594 163.535156 247.339844 164.566406 C 247.75 165.597656 248.105469 166.652344 248.402344 167.71875 C 248.703125 168.789062 248.949219 169.871094 249.136719 170.964844 C 249.328125 172.0625 249.460938 173.164062 249.539062 174.269531 C 249.613281 175.378906 249.632812 176.488281 249.597656 177.597656 C 249.597656 219.929688 203.398438 239.996094 191.996094 239.996094 Z M 167.996094 153.597656 C 167.203125 153.5625 166.40625 153.570312 165.613281 153.617188 C 164.820312 153.664062 164.027344 153.75 163.242188 153.878906 C 162.457031 154.011719 161.679688 154.179688 160.914062 154.390625 C 160.144531 154.597656 159.390625 154.847656 158.648438 155.136719 C 157.90625 155.425781 157.183594 155.75 156.472656 156.113281 C 155.765625 156.476562 155.078125 156.875 154.410156 157.3125 C 153.746094 157.746094 153.101562 158.214844 152.484375 158.714844 C 151.867188 159.21875 151.277344 159.75 150.710938 160.3125 C 150.148438 160.875 149.617188 161.464844 149.117188 162.082031 C 148.613281 162.703125 148.144531 163.34375 147.710938 164.011719 C 147.277344 164.679688 146.878906 165.367188 146.515625 166.074219 C 146.152344 166.78125 145.824219 167.507812 145.535156 168.25 C 145.25 168.992188 145 169.746094 144.789062 170.511719 C 144.578125 171.28125 144.410156 172.058594 144.28125 172.84375 C 144.152344 173.628906 144.0625 174.417969 144.015625 175.214844 C 143.96875 176.007812 143.964844 176.800781 144 177.597656 C 144 212.671875 183.894531 230.398438 191.996094 230.398438 C 200.101562 230.398438 239.996094 212.671875 239.996094 177.597656 C 240.03125 176.800781 240.027344 176.007812 239.980469 175.214844 C 239.933594 174.417969 239.84375 173.628906 239.714844 172.84375 C 239.585938 172.058594 239.414062 171.28125 239.207031 170.511719 C 238.996094 169.746094 238.746094 168.992188 238.457031 168.25 C 238.171875 167.507812 237.84375 166.78125 237.480469 166.074219 C 237.117188 165.363281 236.71875 164.679688 236.285156 164.011719 C 235.847656 163.34375 235.378906 162.703125 234.878906 162.082031 C 234.378906 161.464844 233.84375 160.875 233.28125 160.3125 C 232.71875 159.75 232.128906 159.21875 231.511719 158.714844 C 230.894531 158.214844 230.25 157.746094 229.585938 157.3125 C 228.917969 156.875 228.230469 156.476562 227.523438 156.113281 C 226.8125 155.75 226.089844 155.425781 225.347656 155.136719 C 224.605469 154.847656 223.851562 154.597656 223.082031 154.390625 C 222.3125 154.179688 221.539062 154.011719 220.753906 153.878906 C 219.964844 153.75 219.175781 153.664062 218.382812 153.617188 C 217.585938 153.570312 216.792969 153.5625 215.996094 153.597656 C 206.613281 153.597656 200.074219 158.953125 196.546875 169.515625 C 196.390625 169.996094 196.164062 170.4375 195.863281 170.847656 C 195.566406 171.253906 195.210938 171.609375 194.804688 171.902344 C 194.394531 172.199219 193.949219 172.425781 193.46875 172.582031 C 192.988281 172.738281 192.492188 172.816406 191.988281 172.816406 C 191.484375 172.816406 190.988281 172.738281 190.507812 172.582031 C 190.027344 172.425781 189.582031 172.199219 189.171875 171.902344 C 188.765625 171.609375 188.410156 171.253906 188.113281 170.847656 C 187.8125 170.4375 187.585938 169.996094 187.429688 169.515625 C 183.917969 158.953125 177.382812 153.597656 167.996094 153.597656 Z M 167.996094 153.597656 " fill-opacity="1" fill-rule="nonzero"/></svg>