<svg xmlns="http://www.w3.org/2000/svg" xmlns:xlink="http://www.w3.org/1999/xlink" width="512" zoomAndPan="magnify" viewBox="0 0 384 383.999986" height="512" preserveAspectRatio="xMidYMid meet" version="1.0"><defs><clipPath id="8856f28f43"><path d="M 80.640625 38.457031 L 303.355469 38.457031 L 303.355469 345.570312 L 80.640625 345.570312 Z M 80.640625 38.457031 " clip-rule="nonzero"/></clipPath></defs><g clip-path="url(#8856f28f43)"><path fill="#105a4c" d="M 101.71875 339.109375 L 282.277344 339.109375 C 290.347656 339.109375 296.890625 332.566406 296.890625 324.492188 L 296.890625 59.535156 C 296.890625 51.464844 290.347656 44.921875 282.277344 44.921875 L 101.71875 44.921875 C 93.644531 44.921875 87.101562 51.464844 87.101562 59.535156 L 87.101562 324.492188 C 87.101562 332.566406 93.644531 339.109375 101.71875 339.109375 Z M 288.738281 345.570312 L 95.253906 345.570312 C 87.183594 345.570312 80.640625 339.027344 80.640625 330.957031 L 80.640625 53.074219 C 80.640625 45 87.183594 38.460938 95.253906 38.460938 L 288.738281 38.460938 C 296.808594 38.460938 303.355469 45 303.355469 53.074219 L 303.355469 330.957031 C 303.355469 339.027344 296.808594 345.570312 288.738281 345.570312 " fill-opacity="1" fill-rule="nonzero"/></g><path fill="#105a4c" d="M 110.980469 159.105469 L 103.601562 149.636719 C 102.890625 148.726562 102.960938 147.4375 103.761719 146.609375 C 104.699219 145.640625 106.003906 144.390625 106.898438 145.398438 L 110.929688 149.953125 C 111.890625 151.035156 113.589844 150.984375 114.480469 149.851562 L 122.589844 139.519531 C 123.207031 138.730469 124.371094 138.660156 125.078125 139.367188 L 127.410156 141.699219 C 128.277344 142.570312 128.316406 143.972656 127.488281 144.886719 L 114.515625 159.238281 C 113.554688 160.300781 111.863281 160.238281 110.980469 159.105469 " fill-opacity="1" fill-rule="nonzero"/><path fill="#105a4c" d="M 110.980469 205.023438 L 103.601562 195.554688 C 102.890625 194.644531 102.960938 193.351562 103.761719 192.523438 C 104.699219 191.558594 106.003906 190.308594 106.898438 191.320312 L 110.929688 195.875 C 111.890625 196.953125 113.589844 196.902344 114.480469 195.769531 L 121.519531 186.796875 C 122.707031 185.285156 124.945312 185.152344 126.300781 186.507812 L 127.410156 187.617188 C 128.277344 188.488281 128.316406 189.886719 127.488281 190.800781 L 114.515625 205.152344 C 113.554688 206.21875 111.863281 206.160156 110.980469 205.023438 " fill-opacity="1" fill-rule="nonzero"/><path fill="#105a4c" d="M 110.980469 255.558594 L 103.601562 246.089844 C 102.890625 245.179688 102.960938 243.890625 103.761719 243.0625 C 104.699219 242.09375 106.003906 240.847656 106.898438 241.851562 L 110.929688 246.410156 C 111.890625 247.492188 113.589844 247.441406 114.480469 246.304688 L 121.519531 237.332031 C 122.707031 235.824219 124.945312 235.6875 126.300781 237.046875 L 127.410156 238.15625 C 128.277344 239.023438 128.316406 240.425781 127.488281 241.339844 L 114.515625 255.691406 C 113.554688 256.753906 111.863281 256.691406 110.980469 255.558594 " fill-opacity="1" fill-rule="nonzero"/><path fill="#105a4c" d="M 188.042969 100.296875 C 184.566406 103.738281 179.066406 107.867188 175.914062 107.613281 C 170.820312 107.203125 164.21875 100.335938 164.21875 100.335938 C 164.21875 100.335938 148.503906 89.074219 157.953125 78.09375 C 164.714844 70.234375 175.917969 82.828125 175.917969 82.828125 C 175.917969 82.828125 186.375 69.488281 194.570312 74.0625 C 204.425781 79.574219 194.117188 94.289062 188.042969 100.296875 Z M 199.285156 68 C 187.417969 61.363281 175.953125 73.886719 175.953125 73.886719 C 171.636719 70.480469 165.757812 67.730469 160.207031 67.738281 C 151.125 67.75 144.347656 77.234375 145.6875 85.949219 C 147.226562 96.011719 157.566406 104.316406 165.050781 110.09375 C 167.371094 111.882812 169.765625 113.664062 172.527344 114.640625 C 180.785156 117.570312 188.191406 109.910156 193.53125 104.628906 C 202.328125 95.921875 213.574219 75.984375 199.285156 68 " fill-opacity="1" fill-rule="nonzero"/><path fill="#105a4c" d="M 220.648438 110.332031 C 217.171875 113.773438 211.667969 117.898438 208.519531 117.644531 C 203.429688 117.234375 196.824219 110.367188 196.824219 110.367188 C 196.824219 110.367188 179.097656 99.09375 188.546875 88.109375 C 195.304688 80.253906 208.523438 92.859375 208.523438 92.859375 C 208.523438 92.859375 216.433594 80.472656 224.621094 85.050781 C 234.480469 90.5625 226.722656 104.320312 220.648438 110.332031 Z M 231.890625 78.03125 C 220.023438 71.398438 208.613281 85.601562 208.613281 85.601562 C 204.300781 82.199219 198.363281 77.761719 192.808594 77.773438 C 183.730469 77.78125 176.957031 87.265625 178.292969 95.984375 C 179.832031 106.042969 190.171875 114.347656 197.660156 120.125 C 199.976562 121.914062 202.371094 123.695312 205.132812 124.671875 C 213.394531 127.605469 220.800781 119.945312 226.136719 114.664062 C 234.933594 105.953125 246.175781 86.015625 231.890625 78.03125 " fill-opacity="1" fill-rule="nonzero"/><path fill="#105a4c" d="M 271.699219 149.304688 L 142.953125 149.304688 C 140.652344 149.304688 138.789062 147.445312 138.789062 145.144531 C 138.789062 142.847656 140.652344 140.984375 142.953125 140.984375 L 271.699219 140.984375 C 273.996094 140.984375 275.859375 142.847656 275.859375 145.144531 C 275.859375 147.445312 273.996094 149.304688 271.699219 149.304688 " fill-opacity="1" fill-rule="nonzero"/><path fill="#105a4c" d="M 271.699219 175.582031 L 142.953125 175.582031 C 140.652344 175.582031 138.789062 173.71875 138.789062 171.421875 C 138.789062 169.125 140.652344 167.261719 142.953125 167.261719 L 271.699219 167.261719 C 273.996094 167.261719 275.859375 169.125 275.859375 171.421875 C 275.859375 173.71875 273.996094 175.582031 271.699219 175.582031 " fill-opacity="1" fill-rule="nonzero"/><path fill="#105a4c" d="M 271.699219 201.859375 L 142.953125 201.859375 C 140.652344 201.859375 138.789062 200 138.789062 197.699219 C 138.789062 195.402344 140.652344 193.539062 142.953125 193.539062 L 271.699219 193.539062 C 273.996094 193.539062 275.859375 195.402344 275.859375 197.699219 C 275.859375 200 273.996094 201.859375 271.699219 201.859375 " fill-opacity="1" fill-rule="nonzero"/><path fill="#105a4c" d="M 271.699219 228.136719 L 142.953125 228.136719 C 140.652344 228.136719 138.789062 226.273438 138.789062 223.976562 C 138.789062 221.679688 140.652344 219.816406 142.953125 219.816406 L 271.699219 219.816406 C 273.996094 219.816406 275.859375 221.679688 275.859375 223.976562 C 275.859375 226.273438 273.996094 228.136719 271.699219 228.136719 " fill-opacity="1" fill-rule="nonzero"/><path fill="#105a4c" d="M 271.699219 254.414062 L 142.953125 254.414062 C 140.652344 254.414062 138.789062 252.554688 138.789062 250.253906 C 138.789062 247.957031 140.652344 246.09375 142.953125 246.09375 L 271.699219 246.09375 C 273.996094 246.09375 275.859375 247.957031 275.859375 250.253906 C 275.859375 252.554688 273.996094 254.414062 271.699219 254.414062 " fill-opacity="1" fill-rule="nonzero"/><path fill="#105a4c" d="M 181.480469 308.992188 L 144.539062 308.992188 C 142.34375 308.992188 140.566406 307.210938 140.566406 305.015625 C 140.566406 302.820312 142.34375 301.039062 144.539062 301.039062 L 181.480469 301.039062 C 183.675781 301.039062 185.457031 302.820312 185.457031 305.015625 C 185.457031 307.210938 183.675781 308.992188 181.480469 308.992188 " fill-opacity="1" fill-rule="nonzero"/><path fill="#105a4c" d="M 250.9375 272.316406 C 235.507812 270.683594 222.570312 283.625 224.203125 299.050781 C 225.394531 310.292969 234.429688 319.332031 245.671875 320.523438 C 261.101562 322.160156 274.042969 309.21875 272.40625 293.789062 C 271.214844 282.546875 262.175781 273.511719 250.9375 272.316406 Z M 251.101562 326.953125 C 232.003906 328.652344 216.074219 312.722656 217.773438 293.625 C 219.082031 278.984375 230.867188 267.195312 245.507812 265.890625 C 264.605469 264.191406 280.539062 280.121094 278.835938 299.21875 C 277.53125 313.859375 265.742188 325.648438 251.101562 326.953125 " fill-opacity="1" fill-rule="nonzero"/><path fill="#105a4c" d="M 263.894531 299.453125 C 262.578125 299.015625 261.78125 297.707031 261.773438 296.320312 C 261.71875 288.976562 255.753906 283.007812 248.40625 282.957031 C 247.015625 282.945312 245.710938 282.152344 245.277344 280.832031 C 244.542969 278.601562 246.183594 276.539062 248.304688 276.539062 C 259.265625 276.539062 268.1875 285.457031 268.1875 296.421875 C 268.1875 298.546875 266.125 300.1875 263.894531 299.453125 " fill-opacity="1" fill-rule="nonzero"/><path fill="#105a4c" d="M 248.304688 316.304688 C 237.375 316.304688 228.472656 307.433594 228.425781 296.515625 C 228.417969 294.96875 229.492188 293.554688 231.015625 293.273438 C 233.054688 292.894531 234.835938 294.449219 234.835938 296.421875 C 234.835938 303.832031 240.855469 309.863281 248.261719 309.886719 C 249.882812 309.894531 251.316406 311.125 251.492188 312.738281 C 251.703125 314.667969 250.191406 316.304688 248.304688 316.304688 " fill-opacity="1" fill-rule="nonzero"/></svg>