<svg xmlns="http://www.w3.org/2000/svg" xmlns:xlink="http://www.w3.org/1999/xlink" width="512" zoomAndPan="magnify" viewBox="0 0 384 383.999986" height="512" preserveAspectRatio="xMidYMid meet" version="1.0"><defs><clipPath id="b95478b7fa"><path d="M 188 47.574219 L 196 47.574219 L 196 92 L 188 92 Z M 188 47.574219 " clip-rule="nonzero"/></clipPath><clipPath id="f4169b1c91"><path d="M 112 173 L 272 173 L 272 336.324219 L 112 336.324219 Z M 112 173 " clip-rule="nonzero"/></clipPath><clipPath id="ba41e82ab5"><path d="M 265 241 L 322 241 L 322 336.324219 L 265 336.324219 Z M 265 241 " clip-rule="nonzero"/></clipPath><clipPath id="a134661358"><path d="M 62 241 L 119 241 L 119 336.324219 L 62 336.324219 Z M 62 241 " clip-rule="nonzero"/></clipPath><clipPath id="857159572f"><path d="M 164 262 L 220 262 L 220 336.324219 L 164 336.324219 Z M 164 262 " clip-rule="nonzero"/></clipPath><clipPath id="8db2c3f6fd"><path d="M 39.574219 329 L 344.074219 329 L 344.074219 336.324219 L 39.574219 336.324219 Z M 39.574219 329 " clip-rule="nonzero"/></clipPath></defs><path fill="#105a4c" d="M 204.511719 65.011719 L 179.484375 65.011719 C 179.0625 65.011719 178.65625 64.929688 178.269531 64.769531 C 177.878906 64.609375 177.535156 64.378906 177.238281 64.082031 C 176.941406 63.78125 176.710938 63.441406 176.550781 63.050781 C 176.390625 62.660156 176.308594 62.257812 176.308594 61.835938 C 176.308594 61.414062 176.390625 61.007812 176.550781 60.621094 C 176.710938 60.230469 176.941406 59.886719 177.238281 59.589844 C 177.535156 59.292969 177.878906 59.0625 178.269531 58.902344 C 178.65625 58.742188 179.0625 58.660156 179.484375 58.660156 L 204.511719 58.660156 C 204.933594 58.660156 205.339844 58.742188 205.730469 58.902344 C 206.117188 59.0625 206.460938 59.292969 206.757812 59.589844 C 207.058594 59.886719 207.285156 60.230469 207.449219 60.621094 C 207.609375 61.007812 207.6875 61.414062 207.6875 61.835938 C 207.6875 62.257812 207.609375 62.660156 207.449219 63.050781 C 207.285156 63.441406 207.058594 63.78125 206.757812 64.082031 C 206.460938 64.378906 206.117188 64.609375 205.730469 64.769531 C 205.339844 64.929688 204.933594 65.011719 204.511719 65.011719 Z M 204.511719 65.011719 " fill-opacity="1" fill-rule="nonzero"/><g clip-path="url(#b95478b7fa)"><path fill="#105a4c" d="M 192 91.113281 C 191.578125 91.113281 191.171875 91.03125 190.785156 90.871094 C 190.394531 90.710938 190.050781 90.480469 189.753906 90.183594 C 189.457031 89.886719 189.226562 89.542969 189.066406 89.152344 C 188.902344 88.765625 188.824219 88.359375 188.824219 87.9375 L 188.824219 51.066406 C 188.824219 50.644531 188.902344 50.242188 189.066406 49.851562 C 189.226562 49.460938 189.457031 49.121094 189.753906 48.820312 C 190.050781 48.523438 190.394531 48.292969 190.785156 48.132812 C 191.171875 47.972656 191.578125 47.890625 192 47.890625 C 192.421875 47.890625 192.824219 47.972656 193.214844 48.132812 C 193.601562 48.292969 193.945312 48.523438 194.246094 48.820312 C 194.542969 49.121094 194.769531 49.460938 194.933594 49.851562 C 195.09375 50.242188 195.175781 50.644531 195.175781 51.066406 L 195.175781 87.9375 C 195.175781 88.359375 195.09375 88.765625 194.933594 89.152344 C 194.769531 89.542969 194.542969 89.886719 194.246094 90.183594 C 193.945312 90.480469 193.601562 90.710938 193.214844 90.871094 C 192.824219 91.03125 192.421875 91.113281 192 91.113281 Z M 192 91.113281 " fill-opacity="1" fill-rule="nonzero"/></g><g clip-path="url(#f4169b1c91)"><path fill="#105a4c" d="M 268.484375 336.101562 L 115.511719 336.101562 C 115.089844 336.101562 114.6875 336.023438 114.296875 335.863281 C 113.910156 335.699219 113.566406 335.472656 113.265625 335.171875 C 112.96875 334.875 112.738281 334.53125 112.578125 334.144531 C 112.417969 333.753906 112.335938 333.347656 112.335938 332.925781 L 112.335938 226.230469 C 112.335938 225.691406 112.464844 225.183594 112.722656 224.710938 C 112.980469 224.238281 113.335938 223.855469 113.789062 223.5625 L 190.277344 174.167969 C 190.800781 173.832031 191.375 173.664062 192 173.664062 C 192.621094 173.664062 193.195312 173.832031 193.71875 174.167969 L 270.210938 223.574219 C 270.660156 223.867188 271.015625 224.25 271.273438 224.722656 C 271.53125 225.199219 271.660156 225.703125 271.660156 226.242188 L 271.660156 332.941406 C 271.660156 333.359375 271.578125 333.765625 271.414062 334.152344 C 271.253906 334.539062 271.023438 334.882812 270.726562 335.175781 C 270.429688 335.472656 270.085938 335.703125 269.695312 335.863281 C 269.308594 336.023438 268.90625 336.101562 268.484375 336.101562 Z M 118.6875 329.753906 L 265.308594 329.753906 L 265.308594 227.972656 L 192 180.621094 L 118.6875 227.972656 Z M 118.6875 329.753906 " fill-opacity="1" fill-rule="nonzero"/></g><g clip-path="url(#ba41e82ab5)"><path fill="#105a4c" d="M 318.417969 336.101562 L 268.484375 336.101562 C 268.0625 336.101562 267.660156 336.023438 267.269531 335.863281 C 266.878906 335.699219 266.535156 335.472656 266.238281 335.171875 C 265.941406 334.875 265.710938 334.53125 265.550781 334.144531 C 265.390625 333.753906 265.308594 333.347656 265.308594 332.925781 L 265.308594 244.332031 C 265.308594 243.75 265.457031 243.207031 265.753906 242.710938 C 266.050781 242.210938 266.457031 241.820312 266.964844 241.542969 C 267.476562 241.265625 268.023438 241.136719 268.601562 241.15625 C 269.183594 241.179688 269.71875 241.347656 270.207031 241.664062 L 320.136719 273.90625 C 320.589844 274.199219 320.945312 274.582031 321.203125 275.054688 C 321.464844 275.527344 321.59375 276.035156 321.59375 276.574219 L 321.59375 332.925781 C 321.59375 333.347656 321.511719 333.753906 321.351562 334.144531 C 321.191406 334.53125 320.960938 334.875 320.664062 335.171875 C 320.363281 335.472656 320.019531 335.699219 319.632812 335.863281 C 319.242188 336.023438 318.839844 336.101562 318.417969 336.101562 Z M 271.660156 329.753906 L 315.242188 329.753906 L 315.242188 278.308594 L 271.660156 250.167969 Z M 271.660156 329.753906 " fill-opacity="1" fill-rule="nonzero"/></g><g clip-path="url(#a134661358)"><path fill="#105a4c" d="M 115.511719 336.101562 L 65.582031 336.101562 C 65.160156 336.101562 64.753906 336.023438 64.367188 335.863281 C 63.976562 335.699219 63.632812 335.472656 63.335938 335.171875 C 63.039062 334.875 62.808594 334.53125 62.648438 334.144531 C 62.484375 333.753906 62.40625 333.347656 62.40625 332.925781 L 62.40625 276.574219 C 62.40625 276.035156 62.535156 275.527344 62.792969 275.054688 C 63.050781 274.582031 63.40625 274.199219 63.859375 273.90625 L 113.792969 241.667969 C 114.28125 241.355469 114.816406 241.1875 115.394531 241.164062 C 115.976562 241.144531 116.523438 241.269531 117.03125 241.550781 C 117.542969 241.828125 117.945312 242.214844 118.242188 242.714844 C 118.539062 243.214844 118.6875 243.753906 118.6875 244.335938 L 118.6875 332.933594 C 118.6875 333.355469 118.605469 333.757812 118.445312 334.148438 C 118.285156 334.535156 118.054688 334.878906 117.757812 335.175781 C 117.457031 335.472656 117.117188 335.703125 116.726562 335.863281 C 116.339844 336.023438 115.933594 336.101562 115.511719 336.101562 Z M 68.757812 329.753906 L 112.335938 329.753906 L 112.335938 250.167969 L 68.757812 278.304688 Z M 68.757812 329.753906 " fill-opacity="1" fill-rule="nonzero"/></g><path fill="#105a4c" d="M 227.816406 203.140625 C 227.191406 203.140625 226.617188 202.972656 226.09375 202.632812 L 192 180.621094 L 157.902344 202.632812 C 157.414062 202.945312 156.878906 203.117188 156.300781 203.136719 C 155.71875 203.160156 155.171875 203.03125 154.664062 202.753906 C 154.152344 202.472656 153.75 202.085938 153.453125 201.585938 C 153.15625 201.085938 153.007812 200.546875 153.007812 199.964844 L 153.007812 146.328125 C 153.007812 145.910156 153.085938 145.503906 153.25 145.113281 C 153.410156 144.726562 153.640625 144.382812 153.9375 144.085938 C 154.234375 143.785156 154.578125 143.558594 154.964844 143.394531 C 155.355469 143.234375 155.761719 143.15625 156.183594 143.15625 L 227.816406 143.15625 C 228.238281 143.15625 228.640625 143.234375 229.03125 143.394531 C 229.421875 143.558594 229.761719 143.785156 230.0625 144.085938 C 230.359375 144.382812 230.589844 144.726562 230.75 145.113281 C 230.910156 145.503906 230.992188 145.910156 230.992188 146.328125 L 230.992188 199.964844 C 230.992188 200.386719 230.910156 200.789062 230.75 201.179688 C 230.589844 201.570312 230.359375 201.914062 230.0625 202.210938 C 229.761719 202.507812 229.421875 202.738281 229.03125 202.898438 C 228.640625 203.058594 228.238281 203.140625 227.816406 203.140625 Z M 192 173.660156 C 192.621094 173.664062 193.195312 173.832031 193.71875 174.167969 L 224.640625 194.132812 L 224.640625 149.503906 L 159.359375 149.503906 L 159.359375 194.132812 L 190.277344 174.167969 C 190.800781 173.832031 191.375 173.664062 192 173.660156 Z M 192 173.660156 " fill-opacity="1" fill-rule="nonzero"/><path fill="#105a4c" d="M 231.832031 149.503906 L 152.164062 149.503906 C 151.503906 149.503906 150.847656 149.4375 150.195312 149.308594 C 149.546875 149.179688 148.917969 148.988281 148.304688 148.734375 C 147.691406 148.480469 147.109375 148.167969 146.558594 147.800781 C 146.007812 147.433594 145.5 147.011719 145.03125 146.542969 C 144.5625 146.078125 144.144531 145.566406 143.777344 145.015625 C 143.410156 144.464844 143.097656 143.882812 142.84375 143.269531 C 142.589844 142.660156 142.398438 142.027344 142.269531 141.378906 C 142.140625 140.730469 142.074219 140.074219 142.074219 139.410156 C 142.074219 138.75 142.144531 138.09375 142.273438 137.445312 C 142.40625 136.796875 142.597656 136.167969 142.851562 135.554688 C 143.109375 134.945312 143.417969 134.363281 143.789062 133.8125 C 144.15625 133.265625 144.574219 132.753906 145.042969 132.289062 C 145.511719 131.820312 146.019531 131.402344 146.570312 131.03125 C 147.117188 130.664062 147.699219 130.351562 148.308594 130.097656 C 148.921875 129.84375 149.550781 129.652344 150.199219 129.519531 C 150.847656 129.386719 151.503906 129.320312 152.164062 129.320312 L 231.832031 129.320312 C 232.503906 129.308594 233.167969 129.359375 233.828125 129.480469 C 234.488281 129.601562 235.128906 129.785156 235.75 130.035156 C 236.375 130.28125 236.964844 130.589844 237.527344 130.957031 C 238.089844 131.324219 238.609375 131.742188 239.085938 132.210938 C 239.566406 132.679688 239.992188 133.191406 240.367188 133.746094 C 240.746094 134.300781 241.0625 134.890625 241.320312 135.507812 C 241.582031 136.125 241.777344 136.761719 241.910156 137.421875 C 242.039062 138.078125 242.105469 138.742188 242.105469 139.410156 C 242.105469 140.082031 242.039062 140.746094 241.910156 141.402344 C 241.777344 142.0625 241.582031 142.699219 241.320312 143.316406 C 241.0625 143.933594 240.746094 144.519531 240.367188 145.078125 C 239.992188 145.632812 239.566406 146.144531 239.085938 146.613281 C 238.609375 147.082031 238.089844 147.5 237.527344 147.867188 C 236.964844 148.234375 236.375 148.539062 235.75 148.789062 C 235.128906 149.039062 234.488281 149.222656 233.828125 149.34375 C 233.167969 149.464844 232.503906 149.515625 231.832031 149.503906 Z M 152.164062 135.667969 C 151.132812 135.671875 150.253906 136.042969 149.53125 136.777344 C 148.785156 137.496094 148.417969 138.375 148.425781 139.410156 C 148.425781 139.90625 148.519531 140.382812 148.710938 140.84375 C 148.898438 141.300781 149.167969 141.703125 149.519531 142.054688 C 149.871094 142.40625 150.277344 142.675781 150.734375 142.867188 C 151.191406 143.058594 151.667969 143.152344 152.164062 143.15625 L 231.832031 143.15625 C 232.320312 143.140625 232.785156 143.035156 233.230469 142.839844 C 233.675781 142.644531 234.070312 142.371094 234.410156 142.019531 C 234.75 141.671875 235.011719 141.269531 235.191406 140.820312 C 235.375 140.367188 235.46875 139.898438 235.46875 139.410156 C 235.46875 138.925781 235.375 138.457031 235.191406 138.003906 C 235.011719 137.554688 234.75 137.152344 234.410156 136.804688 C 234.070312 136.453125 233.675781 136.179688 233.230469 135.984375 C 232.785156 135.789062 232.320312 135.683594 231.832031 135.667969 Z M 152.164062 135.667969 " fill-opacity="1" fill-rule="nonzero"/><path fill="#105a4c" d="M 217.382812 135.667969 L 166.617188 135.667969 C 166.195312 135.667969 165.789062 135.589844 165.402344 135.429688 C 165.011719 135.265625 164.667969 135.039062 164.371094 134.738281 C 164.074219 134.441406 163.84375 134.097656 163.683594 133.710938 C 163.523438 133.320312 163.441406 132.914062 163.441406 132.492188 L 163.441406 109.554688 C 163.441406 108.574219 163.8125 107.769531 164.554688 107.132812 L 189.941406 85.519531 C 190.230469 85.273438 190.550781 85.082031 190.90625 84.953125 C 191.261719 84.820312 191.625 84.757812 192.003906 84.757812 C 192.382812 84.757812 192.75 84.820312 193.105469 84.953125 C 193.460938 85.082031 193.78125 85.273438 194.070312 85.519531 L 219.453125 107.132812 C 220.199219 107.769531 220.570312 108.574219 220.570312 109.554688 L 220.570312 132.492188 C 220.570312 132.917969 220.488281 133.324219 220.328125 133.710938 C 220.164062 134.101562 219.933594 134.445312 219.632812 134.742188 C 219.335938 135.042969 218.992188 135.269531 218.601562 135.429688 C 218.210938 135.59375 217.804688 135.671875 217.382812 135.667969 Z M 169.792969 129.320312 L 214.207031 129.320312 L 214.207031 111.019531 L 192 92.109375 L 169.792969 111.019531 Z M 169.792969 129.320312 " fill-opacity="1" fill-rule="nonzero"/><g clip-path="url(#857159572f)"><path fill="#105a4c" d="M 216.085938 336.101562 L 167.914062 336.101562 C 167.492188 336.101562 167.085938 336.023438 166.695312 335.863281 C 166.308594 335.699219 165.964844 335.472656 165.667969 335.171875 C 165.371094 334.875 165.140625 334.53125 164.980469 334.144531 C 164.816406 333.753906 164.738281 333.347656 164.738281 332.925781 L 164.738281 290.164062 C 164.738281 289.269531 164.78125 288.378906 164.871094 287.492188 C 164.957031 286.605469 165.089844 285.722656 165.265625 284.847656 C 165.4375 283.972656 165.65625 283.105469 165.914062 282.253906 C 166.175781 281.398438 166.476562 280.558594 166.816406 279.734375 C 167.160156 278.910156 167.539062 278.105469 167.960938 277.320312 C 168.382812 276.53125 168.839844 275.769531 169.335938 275.027344 C 169.835938 274.285156 170.367188 273.566406 170.933594 272.878906 C 171.5 272.1875 172.097656 271.527344 172.726562 270.898438 C 173.359375 270.265625 174.019531 269.667969 174.710938 269.101562 C 175.402344 268.535156 176.117188 268.003906 176.859375 267.511719 C 177.601562 267.015625 178.367188 266.554688 179.152344 266.136719 C 179.941406 265.714844 180.746094 265.335938 181.570312 264.992188 C 182.394531 264.652344 183.234375 264.351562 184.089844 264.09375 C 184.941406 263.832031 185.808594 263.617188 186.683594 263.441406 C 187.558594 263.269531 188.441406 263.136719 189.328125 263.050781 C 190.214844 262.964844 191.105469 262.917969 192 262.917969 C 192.890625 262.917969 193.78125 262.964844 194.667969 263.050781 C 195.558594 263.136719 196.441406 263.269531 197.316406 263.441406 C 198.191406 263.617188 199.054688 263.832031 199.910156 264.09375 C 200.761719 264.351562 201.601562 264.652344 202.425781 264.992188 C 203.25 265.335938 204.058594 265.714844 204.84375 266.136719 C 205.632812 266.554688 206.398438 267.015625 207.140625 267.511719 C 207.882812 268.003906 208.597656 268.535156 209.289062 269.101562 C 209.976562 269.667969 210.636719 270.265625 211.269531 270.898438 C 211.902344 271.527344 212.5 272.1875 213.066406 272.878906 C 213.632812 273.566406 214.164062 274.285156 214.660156 275.027344 C 215.15625 275.769531 215.613281 276.53125 216.035156 277.320312 C 216.457031 278.105469 216.839844 278.910156 217.179688 279.734375 C 217.523438 280.558594 217.824219 281.398438 218.082031 282.253906 C 218.34375 283.105469 218.558594 283.972656 218.734375 284.847656 C 218.910156 285.722656 219.039062 286.605469 219.128906 287.492188 C 219.214844 288.378906 219.261719 289.269531 219.261719 290.164062 L 219.261719 332.925781 C 219.261719 333.347656 219.179688 333.753906 219.019531 334.144531 C 218.859375 334.53125 218.628906 334.875 218.332031 335.171875 C 218.03125 335.472656 217.691406 335.699219 217.300781 335.863281 C 216.910156 336.023438 216.507812 336.101562 216.085938 336.101562 Z M 171.089844 329.753906 L 212.910156 329.753906 L 212.910156 290.164062 C 212.910156 289.476562 212.875 288.796875 212.808594 288.113281 C 212.738281 287.433594 212.636719 286.757812 212.503906 286.085938 C 212.371094 285.414062 212.203125 284.753906 212.003906 284.097656 C 211.804688 283.441406 211.574219 282.800781 211.3125 282.167969 C 211.050781 281.535156 210.757812 280.917969 210.433594 280.3125 C 210.109375 279.710938 209.757812 279.125 209.378906 278.554688 C 208.996094 277.984375 208.589844 277.4375 208.15625 276.910156 C 207.722656 276.378906 207.261719 275.875 206.777344 275.390625 C 206.292969 274.90625 205.785156 274.445312 205.257812 274.011719 C 204.726562 273.578125 204.179688 273.171875 203.609375 272.792969 C 203.039062 272.410156 202.453125 272.0625 201.851562 271.738281 C 201.246094 271.414062 200.628906 271.125 199.996094 270.863281 C 199.363281 270.601562 198.71875 270.371094 198.066406 270.171875 C 197.410156 269.972656 196.746094 269.808594 196.074219 269.671875 C 195.40625 269.539062 194.726562 269.441406 194.046875 269.371094 C 193.367188 269.304688 192.683594 269.273438 192 269.273438 C 191.3125 269.273438 190.632812 269.304688 189.949219 269.371094 C 189.269531 269.441406 188.59375 269.539062 187.921875 269.671875 C 187.25 269.808594 186.585938 269.972656 185.933594 270.171875 C 185.277344 270.371094 184.632812 270.601562 184 270.863281 C 183.367188 271.125 182.75 271.414062 182.148438 271.738281 C 181.542969 272.0625 180.957031 272.410156 180.386719 272.792969 C 179.820312 273.171875 179.269531 273.578125 178.738281 274.011719 C 178.210938 274.445312 177.703125 274.90625 177.21875 275.390625 C 176.734375 275.875 176.277344 276.378906 175.839844 276.910156 C 175.40625 277.4375 175 277.984375 174.621094 278.554688 C 174.238281 279.125 173.886719 279.710938 173.5625 280.3125 C 173.242188 280.917969 172.949219 281.535156 172.6875 282.167969 C 172.421875 282.800781 172.191406 283.441406 171.992188 284.097656 C 171.792969 284.753906 171.628906 285.414062 171.492188 286.085938 C 171.359375 286.757812 171.257812 287.433594 171.191406 288.113281 C 171.121094 288.796875 171.089844 289.476562 171.089844 290.164062 Z M 171.089844 329.753906 " fill-opacity="1" fill-rule="nonzero"/></g><path fill="#105a4c" d="M 100.050781 315.867188 L 81.046875 315.867188 C 80.625 315.867188 80.21875 315.785156 79.832031 315.625 C 79.441406 315.460938 79.097656 315.234375 78.800781 314.933594 C 78.503906 314.636719 78.273438 314.292969 78.113281 313.90625 C 77.949219 313.515625 77.871094 313.109375 77.871094 312.691406 L 77.871094 295.816406 C 77.882812 294.992188 77.976562 294.175781 78.148438 293.371094 C 78.320312 292.5625 78.566406 291.78125 78.890625 291.023438 C 79.214844 290.265625 79.609375 289.546875 80.074219 288.867188 C 80.539062 288.1875 81.066406 287.558594 81.652344 286.980469 C 82.242188 286.402344 82.878906 285.886719 83.566406 285.429688 C 84.253906 284.976562 84.980469 284.59375 85.742188 284.28125 C 86.503906 283.96875 87.289062 283.734375 88.097656 283.574219 C 88.90625 283.414062 89.722656 283.335938 90.546875 283.335938 C 91.371094 283.335938 92.1875 283.414062 92.996094 283.574219 C 93.804688 283.734375 94.589844 283.96875 95.355469 284.28125 C 96.117188 284.59375 96.84375 284.976562 97.53125 285.429688 C 98.21875 285.886719 98.855469 286.402344 99.441406 286.980469 C 100.03125 287.558594 100.554688 288.1875 101.019531 288.867188 C 101.484375 289.546875 101.878906 290.265625 102.203125 291.023438 C 102.527344 291.78125 102.777344 292.5625 102.949219 293.371094 C 103.121094 294.175781 103.214844 294.992188 103.226562 295.816406 L 103.226562 312.691406 C 103.226562 313.109375 103.144531 313.515625 102.984375 313.90625 C 102.824219 314.292969 102.59375 314.636719 102.296875 314.933594 C 102 315.234375 101.65625 315.460938 101.265625 315.625 C 100.878906 315.785156 100.472656 315.867188 100.050781 315.867188 Z M 84.222656 309.515625 L 96.875 309.515625 L 96.875 295.816406 C 96.867188 295.40625 96.816406 295 96.730469 294.601562 C 96.640625 294.199219 96.515625 293.8125 96.355469 293.4375 C 96.191406 293.0625 95.992188 292.703125 95.761719 292.367188 C 95.527344 292.03125 95.265625 291.71875 94.972656 291.433594 C 94.679688 291.144531 94.363281 290.890625 94.019531 290.664062 C 93.675781 290.441406 93.316406 290.25 92.9375 290.097656 C 92.558594 289.941406 92.167969 289.824219 91.765625 289.746094 C 91.363281 289.667969 90.957031 289.628906 90.546875 289.628906 C 90.140625 289.628906 89.734375 289.667969 89.332031 289.746094 C 88.929688 289.824219 88.539062 289.941406 88.160156 290.097656 C 87.78125 290.25 87.417969 290.441406 87.078125 290.664062 C 86.734375 290.890625 86.417969 291.144531 86.125 291.433594 C 85.832031 291.71875 85.566406 292.03125 85.335938 292.367188 C 85.105469 292.703125 84.90625 293.0625 84.742188 293.4375 C 84.578125 293.8125 84.453125 294.199219 84.367188 294.601562 C 84.277344 295 84.230469 295.40625 84.222656 295.816406 Z M 84.222656 309.515625 " fill-opacity="1" fill-rule="nonzero"/><path fill="#105a4c" d="M 302.953125 315.867188 L 283.945312 315.867188 C 283.527344 315.867188 283.121094 315.785156 282.730469 315.625 C 282.34375 315.460938 282 315.234375 281.699219 314.933594 C 281.402344 314.636719 281.171875 314.292969 281.011719 313.90625 C 280.851562 313.515625 280.769531 313.109375 280.769531 312.691406 L 280.769531 295.816406 C 280.785156 294.992188 280.875 294.175781 281.046875 293.371094 C 281.21875 292.5625 281.46875 291.78125 281.792969 291.023438 C 282.117188 290.265625 282.511719 289.546875 282.976562 288.867188 C 283.441406 288.1875 283.96875 287.558594 284.554688 286.980469 C 285.140625 286.402344 285.78125 285.886719 286.46875 285.433594 C 287.15625 284.976562 287.878906 284.59375 288.644531 284.28125 C 289.40625 283.96875 290.191406 283.734375 291 283.574219 C 291.808594 283.417969 292.625 283.335938 293.449219 283.335938 C 294.273438 283.335938 295.089844 283.417969 295.898438 283.574219 C 296.707031 283.734375 297.492188 283.96875 298.253906 284.28125 C 299.019531 284.59375 299.742188 284.976562 300.429688 285.433594 C 301.117188 285.886719 301.757812 286.402344 302.34375 286.980469 C 302.929688 287.558594 303.457031 288.1875 303.921875 288.867188 C 304.386719 289.546875 304.78125 290.265625 305.105469 291.023438 C 305.429688 291.78125 305.679688 292.5625 305.851562 293.371094 C 306.023438 294.175781 306.113281 294.992188 306.128906 295.816406 L 306.128906 312.691406 C 306.128906 313.109375 306.046875 313.515625 305.886719 313.90625 C 305.726562 314.292969 305.496094 314.636719 305.199219 314.933594 C 304.898438 315.234375 304.554688 315.460938 304.167969 315.625 C 303.777344 315.785156 303.375 315.867188 302.953125 315.867188 Z M 287.121094 309.515625 L 299.777344 309.515625 L 299.777344 295.816406 C 299.765625 295.40625 299.71875 295 299.632812 294.601562 C 299.542969 294.199219 299.417969 293.8125 299.253906 293.4375 C 299.089844 293.0625 298.894531 292.703125 298.660156 292.367188 C 298.429688 292.03125 298.167969 291.71875 297.875 291.433594 C 297.582031 291.144531 297.261719 290.890625 296.921875 290.664062 C 296.578125 290.441406 296.21875 290.25 295.839844 290.097656 C 295.460938 289.941406 295.070312 289.824219 294.667969 289.746094 C 294.265625 289.667969 293.859375 289.628906 293.449219 289.628906 C 293.039062 289.628906 292.632812 289.667969 292.230469 289.746094 C 291.828125 289.824219 291.441406 289.941406 291.058594 290.097656 C 290.679688 290.25 290.320312 290.441406 289.976562 290.664062 C 289.636719 290.890625 289.316406 291.144531 289.023438 291.433594 C 288.730469 291.71875 288.46875 292.03125 288.238281 292.367188 C 288.003906 292.703125 287.808594 293.0625 287.644531 293.4375 C 287.480469 293.8125 287.355469 294.199219 287.265625 294.601562 C 287.179688 295 287.132812 295.40625 287.121094 295.816406 Z M 287.121094 309.515625 " fill-opacity="1" fill-rule="nonzero"/><path fill="#105a4c" d="M 192 242.886719 C 191.449219 242.886719 190.902344 242.863281 190.359375 242.808594 C 189.8125 242.753906 189.269531 242.671875 188.734375 242.566406 C 188.195312 242.460938 187.664062 242.324219 187.140625 242.167969 C 186.617188 242.007812 186.101562 241.824219 185.59375 241.613281 C 185.085938 241.402344 184.59375 241.167969 184.109375 240.910156 C 183.625 240.652344 183.15625 240.371094 182.699219 240.066406 C 182.246094 239.761719 181.804688 239.433594 181.382812 239.085938 C 180.957031 238.738281 180.550781 238.371094 180.164062 237.984375 C 179.777344 237.597656 179.410156 237.191406 179.0625 236.765625 C 178.714844 236.34375 178.386719 235.902344 178.082031 235.449219 C 177.777344 234.992188 177.496094 234.523438 177.238281 234.039062 C 176.980469 233.554688 176.746094 233.0625 176.539062 232.554688 C 176.328125 232.046875 176.144531 231.53125 175.984375 231.007812 C 175.824219 230.484375 175.691406 229.953125 175.585938 229.414062 C 175.476562 228.875 175.398438 228.335938 175.34375 227.789062 C 175.289062 227.246094 175.265625 226.699219 175.265625 226.148438 C 175.265625 225.601562 175.289062 225.054688 175.34375 224.507812 C 175.398438 223.964844 175.480469 223.421875 175.585938 222.882812 C 175.691406 222.347656 175.824219 221.816406 175.984375 221.289062 C 176.144531 220.765625 176.328125 220.25 176.539062 219.746094 C 176.746094 219.238281 176.980469 218.742188 177.242188 218.257812 C 177.5 217.777344 177.78125 217.304688 178.085938 216.851562 C 178.390625 216.394531 178.714844 215.957031 179.0625 215.53125 C 179.410156 215.109375 179.777344 214.703125 180.167969 214.316406 C 180.554688 213.925781 180.960938 213.558594 181.382812 213.210938 C 181.808594 212.863281 182.246094 212.539062 182.703125 212.234375 C 183.160156 211.929688 183.628906 211.648438 184.109375 211.386719 C 184.59375 211.128906 185.089844 210.894531 185.597656 210.6875 C 186.101562 210.476562 186.617188 210.292969 187.140625 210.132812 C 187.667969 209.972656 188.199219 209.839844 188.734375 209.734375 C 189.273438 209.625 189.816406 209.546875 190.359375 209.492188 C 190.90625 209.4375 191.453125 209.410156 192 209.410156 C 192.550781 209.410156 193.097656 209.4375 193.640625 209.492188 C 194.1875 209.546875 194.730469 209.625 195.265625 209.734375 C 195.804688 209.839844 196.335938 209.972656 196.859375 210.132812 C 197.382812 210.292969 197.898438 210.476562 198.40625 210.683594 C 198.914062 210.894531 199.40625 211.128906 199.890625 211.386719 C 200.375 211.644531 200.84375 211.925781 201.300781 212.230469 C 201.753906 212.535156 202.195312 212.863281 202.617188 213.210938 C 203.042969 213.558594 203.449219 213.925781 203.835938 214.3125 C 204.222656 214.699219 204.589844 215.105469 204.9375 215.53125 C 205.289062 215.953125 205.613281 216.394531 205.917969 216.847656 C 206.222656 217.304688 206.503906 217.773438 206.761719 218.257812 C 207.019531 218.742188 207.253906 219.234375 207.464844 219.742188 C 207.675781 220.25 207.859375 220.765625 208.019531 221.289062 C 208.179688 221.8125 208.3125 222.34375 208.417969 222.882812 C 208.523438 223.417969 208.605469 223.960938 208.660156 224.507812 C 208.714844 225.050781 208.738281 225.597656 208.742188 226.148438 C 208.738281 226.695312 208.714844 227.242188 208.660156 227.789062 C 208.605469 228.332031 208.523438 228.875 208.417969 229.414062 C 208.308594 229.949219 208.175781 230.480469 208.019531 231.007812 C 207.859375 231.53125 207.675781 232.046875 207.464844 232.550781 C 207.253906 233.058594 207.019531 233.554688 206.761719 234.039062 C 206.503906 234.519531 206.222656 234.992188 205.917969 235.445312 C 205.613281 235.902344 205.285156 236.34375 204.9375 236.765625 C 204.589844 237.191406 204.222656 237.59375 203.835938 237.984375 C 203.449219 238.371094 203.042969 238.738281 202.617188 239.085938 C 202.195312 239.433594 201.753906 239.761719 201.296875 240.066406 C 200.84375 240.371094 200.371094 240.652344 199.890625 240.910156 C 199.40625 241.167969 198.910156 241.402344 198.40625 241.613281 C 197.898438 241.824219 197.382812 242.007812 196.859375 242.167969 C 196.332031 242.324219 195.800781 242.457031 195.265625 242.566406 C 194.726562 242.671875 194.183594 242.753906 193.640625 242.808594 C 193.09375 242.859375 192.546875 242.886719 192 242.886719 Z M 192 215.761719 C 191.316406 215.761719 190.640625 215.828125 189.972656 215.964844 C 189.304688 216.097656 188.652344 216.292969 188.023438 216.554688 C 187.394531 216.816406 186.796875 217.136719 186.230469 217.515625 C 185.660156 217.894531 185.136719 218.324219 184.65625 218.808594 C 184.171875 219.289062 183.742188 219.816406 183.363281 220.382812 C 182.984375 220.949219 182.664062 221.546875 182.402344 222.179688 C 182.144531 222.808594 181.945312 223.457031 181.8125 224.125 C 181.679688 224.796875 181.613281 225.472656 181.613281 226.152344 C 181.613281 226.835938 181.683594 227.511719 181.816406 228.179688 C 181.949219 228.847656 182.144531 229.5 182.40625 230.128906 C 182.667969 230.757812 182.988281 231.355469 183.367188 231.921875 C 183.746094 232.492188 184.175781 233.015625 184.660156 233.496094 C 185.140625 233.980469 185.667969 234.410156 186.234375 234.789062 C 186.800781 235.167969 187.398438 235.488281 188.03125 235.746094 C 188.660156 236.007812 189.308594 236.207031 189.980469 236.339844 C 190.648438 236.472656 191.324219 236.539062 192.003906 236.539062 C 192.6875 236.539062 193.363281 236.46875 194.03125 236.335938 C 194.699219 236.203125 195.351562 236.007812 195.980469 235.746094 C 196.609375 235.484375 197.207031 235.164062 197.777344 234.785156 C 198.34375 234.40625 198.867188 233.976562 199.347656 233.492188 C 199.832031 233.011719 200.261719 232.484375 200.640625 231.917969 C 201.019531 231.351562 201.339844 230.753906 201.601562 230.121094 C 201.859375 229.492188 202.058594 228.84375 202.191406 228.171875 C 202.324219 227.503906 202.390625 226.828125 202.390625 226.148438 C 202.390625 225.464844 202.320312 224.789062 202.1875 224.121094 C 202.054688 223.453125 201.859375 222.800781 201.597656 222.171875 C 201.335938 221.542969 201.015625 220.945312 200.636719 220.375 C 200.257812 219.808594 199.828125 219.285156 199.34375 218.804688 C 198.863281 218.320312 198.335938 217.890625 197.769531 217.511719 C 197.203125 217.132812 196.605469 216.8125 195.972656 216.550781 C 195.34375 216.292969 194.695312 216.09375 194.023438 215.960938 C 193.355469 215.828125 192.679688 215.761719 192 215.761719 Z M 192 215.761719 " fill-opacity="1" fill-rule="nonzero"/><g clip-path="url(#8db2c3f6fd)"><path fill="#105a4c" d="M 341.25 336.101562 L 42.75 336.101562 C 42.328125 336.101562 41.921875 336.023438 41.535156 335.863281 C 41.144531 335.699219 40.800781 335.472656 40.503906 335.171875 C 40.207031 334.875 39.976562 334.53125 39.816406 334.144531 C 39.652344 333.753906 39.574219 333.347656 39.574219 332.925781 C 39.574219 332.507812 39.652344 332.101562 39.816406 331.710938 C 39.976562 331.324219 40.207031 330.980469 40.503906 330.683594 C 40.800781 330.382812 41.144531 330.15625 41.535156 329.992188 C 41.921875 329.832031 42.328125 329.753906 42.75 329.753906 L 341.25 329.753906 C 341.671875 329.753906 342.074219 329.832031 342.464844 329.992188 C 342.851562 330.15625 343.195312 330.382812 343.496094 330.683594 C 343.792969 330.980469 344.023438 331.324219 344.183594 331.710938 C 344.34375 332.101562 344.425781 332.507812 344.425781 332.925781 C 344.425781 333.347656 344.34375 333.753906 344.183594 334.144531 C 344.023438 334.53125 343.792969 334.875 343.496094 335.171875 C 343.195312 335.472656 342.851562 335.699219 342.464844 335.863281 C 342.074219 336.023438 341.671875 336.101562 341.25 336.101562 Z M 341.25 336.101562 " fill-opacity="1" fill-rule="nonzero"/></g></svg>