<svg xmlns="http://www.w3.org/2000/svg" xmlns:xlink="http://www.w3.org/1999/xlink" width="512" zoomAndPan="magnify" viewBox="0 0 384 383.999986" height="512" preserveAspectRatio="xMidYMid meet" version="1.0"><defs><clipPath id="08ee29f022"><path d="M 38.398438 90.433594 L 345.898438 90.433594 L 345.898438 293.683594 L 38.398438 293.683594 Z M 38.398438 90.433594 " clip-rule="nonzero"/></clipPath></defs><g clip-path="url(#08ee29f022)"><path fill="#105a4c" d="M 331.894531 266.574219 L 329.199219 266.574219 L 329.199219 148.496094 C 332.886719 144.949219 335.191406 139.972656 335.191406 134.464844 C 335.191406 123.730469 326.453125 114.992188 315.71875 114.992188 C 304.980469 114.992188 296.246094 123.730469 296.246094 134.464844 C 296.246094 138.960938 297.78125 143.101562 300.351562 146.402344 C 293.992188 151.238281 280.058594 159.6875 266.691406 153.457031 C 260.300781 150.484375 255.578125 146.300781 252.105469 142.023438 L 252.105469 124.027344 C 255.855469 120.476562 258.203125 115.457031 258.203125 109.902344 C 258.203125 99.164062 249.464844 90.429688 238.730469 90.429688 C 227.992188 90.429688 219.257812 99.164062 219.257812 109.902344 C 219.257812 115.457031 221.605469 120.476562 225.351562 124.027344 L 225.351562 215.648438 L 158.644531 215.648438 L 158.644531 124.027344 C 162.394531 120.476562 164.738281 115.457031 164.738281 109.902344 C 164.738281 99.164062 156.003906 90.429688 145.265625 90.429688 C 134.527344 90.429688 125.796875 99.164062 125.796875 109.902344 C 125.796875 115.460938 128.140625 120.476562 131.886719 124.027344 L 131.886719 142.070312 C 128.421875 146.324219 123.703125 150.480469 117.308594 153.457031 C 109.949219 156.886719 101.570312 156.34375 92.410156 151.847656 C 88.832031 150.089844 85.808594 148.039062 83.648438 146.398438 C 86.214844 143.101562 87.75 138.960938 87.75 134.464844 C 87.75 123.730469 79.015625 114.992188 68.28125 114.992188 C 57.542969 114.992188 48.808594 123.730469 48.808594 134.464844 C 48.808594 139.972656 51.109375 144.949219 54.800781 148.496094 L 54.800781 266.574219 L 52.101562 266.574219 C 44.667969 266.574219 38.621094 272.621094 38.621094 280.054688 C 38.621094 287.484375 44.667969 293.535156 52.101562 293.535156 L 287.859375 293.535156 C 290.339844 293.535156 292.351562 291.523438 292.351562 289.042969 C 292.351562 286.558594 290.339844 284.546875 287.859375 284.546875 L 52.101562 284.546875 C 49.621094 284.546875 47.605469 282.53125 47.605469 280.054688 C 47.605469 277.574219 49.621094 275.5625 52.101562 275.5625 L 331.894531 275.5625 C 334.371094 275.5625 336.386719 277.574219 336.386719 280.054688 C 336.386719 282.53125 334.371094 284.546875 331.894531 284.546875 L 307.03125 284.546875 C 304.546875 284.546875 302.535156 286.558594 302.535156 289.042969 C 302.535156 291.523438 304.546875 293.535156 307.03125 293.535156 L 331.894531 293.535156 C 339.324219 293.535156 345.375 287.488281 345.375 280.054688 C 345.375 272.621094 339.328125 266.574219 331.894531 266.574219 Z M 238.730469 99.417969 C 244.511719 99.417969 249.214844 104.121094 249.214844 109.902344 C 249.214844 115.683594 244.511719 120.386719 238.730469 120.386719 C 232.949219 120.386719 228.246094 115.683594 228.246094 109.902344 C 228.246094 104.121094 232.949219 99.417969 238.730469 99.417969 Z M 145.265625 99.417969 C 151.046875 99.417969 155.75 104.121094 155.75 109.902344 C 155.75 115.683594 151.046875 120.386719 145.265625 120.386719 C 139.484375 120.386719 134.78125 115.683594 134.78125 109.902344 C 134.78125 104.121094 139.484375 99.417969 145.265625 99.417969 Z M 149.65625 128.867188 L 149.65625 215.648438 L 140.875 215.648438 L 140.875 145.144531 C 145.390625 138.835938 147.730469 132.6875 148.828125 129.039062 C 149.105469 128.988281 149.382812 128.929688 149.65625 128.867188 Z M 72.769531 266.574219 L 63.785156 266.574219 L 63.785156 153.40625 C 65.226562 153.75 66.730469 153.9375 68.277344 153.9375 C 69.824219 153.9375 71.328125 153.746094 72.769531 153.40625 Z M 68.277344 144.949219 C 62.496094 144.949219 57.792969 140.246094 57.792969 134.464844 C 57.792969 128.683594 62.496094 123.980469 68.277344 123.980469 C 74.058594 123.980469 78.761719 128.683594 78.761719 134.464844 C 78.761719 140.246094 74.058594 144.949219 68.277344 144.949219 Z M 89.363281 266.574219 L 105.191406 252.941406 C 107.070312 251.320312 107.28125 248.484375 105.664062 246.601562 C 104.046875 244.722656 101.207031 244.511719 99.328125 246.128906 L 81.757812 261.265625 L 81.757812 156.09375 C 87.894531 160.148438 97.027344 164.6875 107.199219 164.6875 C 111.6875 164.6875 116.378906 163.804688 121.101562 161.605469 C 125.257812 159.667969 128.820312 157.332031 131.886719 154.796875 L 131.886719 218.082031 L 114.785156 232.8125 C 112.90625 234.429688 112.695312 237.269531 114.316406 239.148438 C 115.933594 241.027344 118.773438 241.238281 120.652344 239.621094 L 138.050781 224.632812 L 245.945312 224.632812 L 294.628906 266.570312 Z M 302.238281 261.265625 L 252.109375 218.082031 L 252.109375 191.980469 C 252.109375 189.5 250.097656 187.488281 247.617188 187.488281 C 245.132812 187.488281 243.121094 189.5 243.121094 191.980469 L 243.121094 215.648438 L 234.339844 215.648438 L 234.339844 128.867188 C 234.613281 128.929688 234.886719 128.988281 235.167969 129.039062 C 236.265625 132.6875 238.605469 138.835938 243.121094 145.140625 L 243.121094 172.507812 C 243.121094 174.992188 245.132812 177 247.617188 177 C 250.097656 177 252.109375 174.992188 252.109375 172.507812 L 252.109375 154.796875 C 255.175781 157.332031 258.738281 159.667969 262.894531 161.605469 C 267.621094 163.804688 272.308594 164.6875 276.796875 164.6875 C 286.96875 164.6875 296.101562 160.148438 302.238281 156.09375 Z M 320.210938 266.574219 L 311.222656 266.574219 L 311.222656 153.40625 C 312.667969 153.75 314.171875 153.9375 315.71875 153.9375 C 317.265625 153.9375 318.769531 153.746094 320.210938 153.40625 Z M 315.71875 144.949219 C 309.9375 144.949219 305.234375 140.246094 305.234375 134.464844 C 305.234375 128.683594 309.9375 123.980469 315.71875 123.980469 C 321.5 123.980469 326.203125 128.683594 326.203125 134.464844 C 326.203125 140.246094 321.5 144.949219 315.71875 144.949219 " fill-opacity="1" fill-rule="nonzero"/></g></svg>